<?xml version="1.0" encoding="UTF-8"?>
<svg width="684px" height="408px" viewBox="0 0 684 408" version="1.1" xmlns="http://www.w3.org/2000/svg" xmlns:xlink="http://www.w3.org/1999/xlink">
    <!-- Generator: Sketch 52.6 (67491) - http://www.bohemiancoding.com/sketch -->
    <title>undraw_feeling_of_joy_ioj2</title>
    <desc>Created with Sketch.</desc>
    <g id="Main-Design" stroke="none" stroke-width="1" fill="none" fill-rule="evenodd">
        <g id="Booklov-Landing-Page" transform="translate(-472.000000, -4838.000000)">
            <g id="undraw_feeling_of_joy_ioj2" transform="translate(472.000000, 4838.000000)">
                <ellipse id="Oval" fill="#3F3D56" cx="288.5" cy="363.5" rx="288.5" ry="14.5"></ellipse>
                <ellipse id="Oval" fill="#3F3D56" cx="571" cy="388.5" rx="113" ry="5.5"></ellipse>
                <ellipse id="Oval" fill="#3F3D56" cx="251" cy="402.5" rx="113" ry="5.5"></ellipse>
                <circle id="Oval" fill="#6C63FF" cx="249" cy="389" r="14"></circle>
                <circle id="Oval" fill="#6C63FF" cx="407" cy="342" r="20"></circle>
                <circle id="Oval" fill="#6C63FF" cx="587" cy="377" r="14"></circle>
                <circle id="Oval" fill="#2F2E41" cx="301.5" cy="32.5" r="9.5"></circle>
                <path d="M291.90955,30.5 C291.910015,25.6408126 295.400555,21.5652645 300,21.0536052 C296.559317,20.6685839 293.21118,22.3801654 291.37622,25.4621169 C289.54126,28.5440684 289.54126,32.4559316 291.37622,35.5378831 C293.21118,38.6198346 296.559317,40.3314161 300,39.9463948 C295.400555,39.4347355 291.910015,35.3591874 291.90955,30.5 Z" id="Path" fill="#2F2E41"></path>
                <path d="M320.1778,43.6967209 C313.545483,32.5609827 300.423977,32.0420062 300.423977,32.0420062 C300.423977,32.0420062 287.637816,30.4172569 279.435571,47.3771252 C271.790426,63.1851136 261.239155,78.4480394 277.736902,82.148586 L280.716876,72.9321924 L282.562354,82.8347343 C284.911316,83.0026116 287.267764,83.0426305 289.621127,82.9546116 C307.288861,82.3877979 324.114751,83.1204427 323.572987,76.8205767 C322.852799,68.4457881 326.559418,54.4115258 320.1778,43.6967209 Z" id="Path" fill="#2F2E41"></path>
                <path d="M288.999998,64.3999948 C288.999998,64.3999948 294.400001,84.7999983 288.999998,87.1999994 C283.599995,89.6000006 280,91.3999951 280,91.3999951 L286.000003,114.8 L298.000009,128 L312.999997,112.39998 L319,93.799977 L319,85.9999988 C319,85.9999988 306.999994,84.199998 307.600001,76.3999942 C307.941194,71.5668577 307.536455,66.7099991 306.4,62 L288.999998,64.3999948 Z" id="Path" fill="#A0616A"></path>
                <path d="M273.333218,94 C273.333218,94 266.256184,94 266.256184,98.1674229 C266.256184,102.334846 268.025444,139.246286 268.025444,139.246286 L248.990966,187.744982 C248.990966,187.744982 239.554918,207.391392 246.631958,207.986738 C253.708999,208.582084 254.298746,188.935668 254.298746,188.935668 L281,148.176472 L273.333218,94 Z" id="Path" fill="#A0616A"></path>
                <path d="M323.65376,89 C323.65376,89 330.718763,89 330.718763,93.1645311 C330.718763,97.3290622 328.95251,134.214953 328.95251,134.214953 L336.017519,187.759006 C336.017519,187.759006 345.437525,207.391813 338.372516,207.986747 C331.307507,208.581681 330.718763,188.948874 330.718763,188.948874 L316,143.138955 L323.65376,89 Z" id="Path" fill="#A0616A"></path>
                <path d="M281.686825,154.557222 C281.686825,154.557222 273.339705,161.114572 270.358584,188.536196 C267.377463,215.957821 222.660647,335.77843 243.528507,344.720263 C264.396368,353.662097 290.630195,362.007815 293.611316,350.085368 C296.592437,338.16292 301.958449,206.419864 301.958449,206.419864 C301.958449,206.419864 290.630195,348.296993 304.93957,350.085368 C319.248945,351.873742 342.501676,354.854343 345.482797,345.316386 C348.463918,335.77843 338.159101,164.095179 324.828569,156.941707 C311.498036,149.788234 281.686825,154.557222 281.686825,154.557222 Z" id="Path" fill="#2F2E41"></path>
                <polygon id="Path" fill="#2F2E41" points="246.967642 342 240 355.414539 241.16117 367 255.677659 360.902423 258 345.658806"></polygon>
                <polygon id="Path" fill="#2F2E41" points="316.032358 340 323 353.414539 321.83883 365 307.322341 358.902423 305 343.658806"></polygon>
                <circle id="Oval" fill="#A0616A" cx="299.5" cy="58.5" r="16.5"></circle>
                <path d="M300.426003,115.874511 L281.971976,89.7499213 L270.066144,93.906108 C270.066144,93.906108 269.470852,101.62474 271.852018,108.749626 C274.233185,115.874511 273.042602,123.593143 276.019053,130.718028 C278.995505,137.842913 272.44731,146.155287 274.82847,148.530257 C277.20963,150.905227 278.40022,155.655142 276.614345,157.436365 C274.82847,159.217588 300.426009,152.686444 307.569496,156.248883 C314.712982,159.811322 326.023523,159.811329 326.023523,156.842624 C326.023523,153.873919 323.047071,149.123998 324.832946,145.561552 C326.618821,141.999106 321.261196,132.499257 321.261196,132.499257 L329,89.7499213 C329,89.7499213 323.047084,85 321.856507,85 C320.66593,85 316.796528,86.3196496 316.796528,86.3196496 L300.426003,115.874511 Z" id="Path" fill="#2F2E41"></path>
                <polygon id="Path" fill="#2F2E41" points="316.385842 42.7420178 303.491071 36 285.684311 38.7576633 282 55 291.171475 54.6478764 293.733557 48.6809132 293.733557 54.5496391 297.964923 54.3869733 300.420918 44.8872923 301.955995 55 317 54.6931677"></polygon>
                <polygon id="Rectangle" fill="#F2F2F2" transform="translate(484.181802, 193.793087) rotate(83.667401) translate(-484.181802, -193.793087) " points="453.023654 162.69467 515.326526 162.708093 515.339949 224.891504 453.037077 224.878081"></polygon>
                <path d="M448.721676,236.298975 C445.366909,231.736542 445.09027,225.602089 448.020756,220.756103 C450.951242,215.910117 456.511744,213.306932 462.109408,214.160409 C467.707072,215.013886 472.239534,219.155947 473.593314,224.655156 C474.947095,230.154365 472.855589,235.927746 468.294063,239.283181 C462.06314,243.855779 453.307428,242.520794 448.721676,236.298975 Z M470.252398,220.46108 C467.202609,216.313412 461.955125,214.411665 456.95684,215.642621 C451.958554,216.873576 448.193795,220.994819 447.418062,226.084618 C446.64233,231.174418 449.008393,236.230426 453.412959,238.895033 C457.817525,241.55964 463.39319,241.308098 467.54003,238.2577 C473.195211,234.08807 474.408605,226.126651 470.252398,220.46108 Z" id="Shape" fill="#3F3D56" fill-rule="nonzero"></path>
                <polygon id="Rectangle" fill="#3F3D56" transform="translate(192.694436, 118.449160) rotate(-35.666120) translate(-192.694436, -118.449160) " points="189.622158 8.53950931 195.971489 8.53359096 195.766714 228.35881 189.417383 228.364728"></polygon>
                <polygon id="Rectangle" fill="#3F3D56" transform="translate(167.907312, 83.843142) rotate(-35.666120) translate(-167.907312, -83.843142) " points="93.3488364 34.3567084 242.558114 34.2176271 242.465787 133.329576 93.2565101 133.468657"></polygon>
                <ellipse id="Oval" fill="#000000" opacity="0.1" transform="translate(185.665250, 108.635516) rotate(-35.666120) translate(-185.665250, -108.635516) " cx="185.66525" cy="108.635516" rx="24.1274584" ry="6.3533707"></ellipse>
                <circle id="Oval" fill="#3F3D56" cx="150.5" cy="83.5" r="2.5"></circle>
                <circle id="Oval" fill="#3F3D56" cx="171.5" cy="67.5" r="2.5"></circle>
                <path d="M47.9992513,334.081733 C56.0047045,348.717249 72.9951573,355 72.9951573,355 C72.9951573,355 77.0061996,337.553822 69.0007463,322.918273 C60.9952931,308.282725 44.0048403,302 44.0048403,302 C44.0048403,302 39.9938045,319.446159 47.9992513,334.081733 Z" id="Path" fill="#2F2E41"></path>
                <path d="M53.4928288,328.971474 C67.5760866,337.501924 73,354.445753 73,354.445753 C73,354.445753 55.5904289,357.558984 41.5071712,349.028534 C27.4239134,340.498083 22,323.554248 22,323.554248 C22,323.554248 39.4095648,320.441011 53.4928288,328.971474 Z" id="Path" fill="#6C63FF"></path>
                <text id="Speak-up!-We-Have-a" transform="translate(166.418652, 77.819180) rotate(-36.000000) translate(-166.418652, -77.819180) " font-family="Krungthep" font-size="17" font-weight="bold" fill="#FFFFFF">
                    <tspan x="121.146191" y="75.31918">Speak up!</tspan>
                    <tspan x="211.691113" y="75.31918" font-size="14"></tspan>
                    <tspan x="110.552637" y="96.31918" font-size="14">We Have a Sign</tspan>
                </text>
            </g>
        </g>
    </g>
</svg>