<?xml version="1.0" encoding="UTF-8"?>
<svg width="721px" height="417px" viewBox="0 0 721 417" version="1.1" xmlns="http://www.w3.org/2000/svg" xmlns:xlink="http://www.w3.org/1999/xlink">
    <!-- Generator: Sketch 52.6 (67491) - http://www.bohemiancoding.com/sketch -->
    <title>Group 1904</title>
    <desc>Created with Sketch.</desc>
    <g id="Main-Design" stroke="none" stroke-width="1" fill="none" fill-rule="evenodd">
        <g id="Booklov-Landing-Page" transform="translate(-715.000000, -259.000000)">
            <g id="HERO" transform="translate(216.000000, 27.000000)">
                <g id="Group-1904" transform="translate(499.000000, 232.000000)">
                    <g id="Group-46" transform="translate(128.000000, 0.000000)">
                        <path d="M429.612747,59.3747415 C419.848737,49.9663583 408.216382,41.533685 395.679062,35.0623524 C362.14984,17.7585068 329.356767,5.70077614 289.947751,2.21312168 C262.006732,-0.259139703 233.777095,0.235907822 205.863799,3.03158703 C141.977679,9.42851376 93.4516935,34.8371504 59.7199924,71.2618346 C17.7129179,116.62416 -1.59925703,160.189335 1.19533992,224.284596 C2.38199163,251.481951 9.7519057,278.591508 21.9684281,303.569086 C37.1632137,334.632574 69.3389506,364.046235 103.186,381.220614 C137.25632,398.505114 180.78916,415.475125 220.159066,416.551035 C443.555038,422.644881 492.779549,281.675882 495.154338,199.202849 C496.704856,145.426204 470.17772,98.4616702 429.612747,59.3747415" id="Fill-1" fill="#DBF0F8"></path>
                        <path d="M285.372335,77.732572 C285.417385,77.744973 285.461445,77.7568779 285.505506,77.7687829 L285.478772,77.7598542 C285.443623,77.7509254 285.407484,77.7415007 285.372335,77.732572" id="Fill-3" fill="#E0DFE5"></path>
                        <path d="M304.40109,44.1980626 L304.554063,44.1499467 C304.463962,44.1767329 304.371387,44.2005428 304.282771,44.2174081 C304.319901,44.2119517 304.359505,44.2069913 304.40109,44.1980626" id="Fill-5" fill="#F3E0D6"></path>
                        <path d="M304.228959,44.2239558 L304.282425,44.2175073 C304.239355,44.225444 304.1948,44.2309004 304.15371,44.2318925 L304.228959,44.2239558 Z" id="Fill-7" fill="#F3E0D6"></path>
                    </g>
                    <path d="M278.084784,93.561506 C278.084784,93.561506 285.539509,95.3008081 292.084784,101.561506 C296.448301,105.735305 299.448301,110.401971 301.084784,115.561506 C312.851625,129.744282 315.851625,134.077615 310.084784,128.561506 C304.317942,123.045397 311.651276,118.712063 332.084784,115.561506 L323.084784,93.561506 L350.084784,101.561506 L360.084784,112.219977 L382.084784,107.561506 L376.084784,122.561506 L395.084784,144.561506 L403.084784,136.561506 L419.084784,149.561506 L441.084784,149.561506 L448.084784,168.561506 L461.084784,192.561506 L441.084784,192.561506 C428.195727,202.429443 418.52906,211.429443 412.084784,219.561506 C405.640507,227.693569 401.307174,236.360236 399.084784,245.561506 L382.084784,257.561506 C365.542276,253.778509 352.542276,253.778509 343.084784,257.561506 C333.627292,261.344503 328.293958,268.677836 327.084784,279.561506 L292.084784,266.561506 C291.921782,271.400093 287.255115,272.733426 278.084784,270.561506 C268.914453,268.389585 260.914453,264.056252 254.084784,257.561506 C236.755986,251.005021 224.422653,247.005021 217.084784,245.561506 C209.746915,244.117991 201.746915,244.117991 193.084784,245.561506 L186.084784,266.561506 L169.084784,284.561506 L142.084784,284.561506 C133.530477,286.253087 127.86381,286.253087 125.084784,284.561506 C122.305758,282.869925 120.305758,278.203258 119.084784,270.561506 L104.084784,257.561506 L79.0847838,238.561506 L54.0847838,198.561506 L39.0847838,192.561506 C27.7737168,176.129407 21.4403835,164.462741 20.0847838,157.561506 C18.7291841,150.660271 21.3958508,143.660271 28.0847838,136.561506 C10.039025,110.611311 0.705691703,96.277978 0.0847838223,93.561506 C-0.846577999,89.486798 5.90027983,105.028829 20.0847838,101.561506 C29.5411198,99.2499572 37.8744532,92.9166238 45.0847838,82.561506 L61.0847838,82.561506 C64.4481893,81.3819308 70.4481893,78.3819308 79.0847838,73.561506 C87.7213783,68.7410811 96.0547117,63.7410811 104.084784,58.561506 C115.059937,55.9483741 121.051655,54.5217747 122.059937,54.2817075 C123.06822,54.0416403 124.076502,53.8015731 125.084784,53.561506 L156.084784,39.561506 C151.73631,29.7806099 150.402977,24.1139432 152.084784,22.561506 C153.766591,21.0090687 159.433258,22.6757354 169.084784,27.561506 L175.084784,39.561506 L186.084784,48.561506 L198.084784,39.561506 L206.084784,27.561506 C208.90313,26.1541023 212.569796,27.820769 217.084784,32.561506 C221.599771,37.302243 224.599771,42.6355763 226.084784,48.561506 L258.084784,62.561506 L278.084784,69.561506 L292.084784,82.561506 C282.75145,89.8948393 278.084784,93.561506 278.084784,93.561506 Z" id="Path-8" fill="#3F3D56" fill-rule="nonzero"></path>
                    <path d="M461.543751,193 L439.543751,198 L412.543751,220 L399.543751,247 L389.543751,258 L346.543751,258 C337.84521,272.327008 333.056808,280.213789 332.178544,281.660342 C331.300279,283.106894 330.422015,284.553447 329.543751,286 C323.16437,297.081166 320.831037,306.747832 322.543751,315 C324.256465,323.252168 330.256465,331.252168 340.543751,339 L340.543751,351 L359.543751,351 L373.543751,371 L389.543751,378 L451.543751,371 C462.635197,370.223598 468.96853,368.890265 470.543751,367 C472.906582,364.164603 461.543751,366.735333 461.543751,359 C461.543751,353.843111 464.543751,348.509778 470.543751,343 L507.543751,343 L520.543751,321 L538.543751,332 L559.543751,321 L566.543751,321 C573.839864,303.43779 579.173198,293.104457 582.543751,290 C585.914304,286.895543 593.247637,285.56221 604.543751,286 L623.543751,295 L645.543751,285.5 L667.543751,304 L692.543751,299 L696.543751,280 C697.703005,286.043838 701.369672,282.377172 707.543751,269 C713.71783,255.622828 718.051163,241.956162 720.543751,228 C700.538412,221.103896 687.205079,215.770563 680.543751,212 C673.882423,208.229437 669.54909,203.56277 667.543751,198 L640.543751,193 L619.543751,193 L604.543751,208 L587.543751,198 L566.543751,198 L550.543751,208 L550.543751,220 L527.543751,220 L527.543751,198 L515.543751,198 L501.543751,181 L487.543751,198 L470.543751,189 L461.543751,193 Z" id="Path-9" fill="#3F3D56" fill-rule="nonzero"></path>
                    <circle id="Oval" fill="#6C63FF" transform="translate(172.792403, 133.792403) rotate(6.000000) translate(-172.792403, -133.792403) " cx="172.792403" cy="133.792403" r="8"></circle>
                    <circle id="Oval" fill="#6C63FF" transform="translate(58.792403, 124.792403) rotate(6.000000) translate(-58.792403, -124.792403) " cx="58.7924029" cy="124.792403" r="8"></circle>
                    <circle id="Oval-Copy-14" fill="#6C63FF" transform="translate(144.792403, 243.792403) rotate(6.000000) translate(-144.792403, -243.792403) " cx="144.792403" cy="243.792403" r="8"></circle>
                    <circle id="Oval" fill="#6C63FF" transform="translate(358.792403, 327.792403) rotate(6.000000) translate(-358.792403, -327.792403) " cx="358.792403" cy="327.792403" r="8"></circle>
                    <circle id="Oval" fill="#6C63FF" transform="translate(487.792403, 272.792403) rotate(6.000000) translate(-487.792403, -272.792403) " cx="487.792403" cy="272.792403" r="8"></circle>
                    <circle id="Oval-Copy-13" fill="#6C63FF" transform="translate(638.292381, 261.792403) rotate(6.000000) translate(-638.292381, -261.792403) " cx="638.292381" cy="261.792403" r="8"></circle>
                    <circle id="Oval" fill="#6C63FF" transform="translate(367.792403, 217.792403) rotate(6.000000) translate(-367.792403, -217.792403) " cx="367.792403" cy="217.792403" r="8"></circle>
                    <path d="M59,125 C78.6251594,108.672162 98.9584927,101.338828 120,103 C141.041507,104.661172 158.708174,114.994505 173,134" id="Path-10" stroke="#6C63FF" stroke-width="2" fill-rule="nonzero"></path>
                    <path d="M145,244 C138.966483,224.369771 138.966483,202.703104 145,179 C151.033517,155.296896 160.366851,140.296896 173,134" id="Path-12" stroke="#6C63FF" stroke-width="2" fill-rule="nonzero"></path>
                    <path d="M172,134 C236.353536,123.630194 300.020202,132.296861 363,160 C425.979798,187.703139 467.646464,225.369806 488,273" id="Path-13" stroke="#6C63FF" stroke-width="2" fill-rule="nonzero"></path>
                    <path d="M368,218 C377.656305,233.089611 381.656305,250.756278 380,271 C378.343695,291.243722 371.343695,310.243722 359,328" id="Path-14" stroke="#6C63FF" stroke-width="2" fill-rule="nonzero"></path>
                    <path d="M368,218 C407.58423,194.156357 453.58423,186.48969 506,195 C558.41577,203.51031 602.749103,225.843643 639,262" id="Path-15" stroke="#6C63FF" stroke-width="2" fill-rule="nonzero"></path>
                    <path d="M173,134 C213.017634,138.301523 250.684301,147.96819 286,163 C321.315699,178.03181 348.649033,196.03181 368,217" id="Path-11" stroke="#6C63FF" stroke-width="2" fill-rule="nonzero"></path>
                    <path d="M359,329 C376.693986,300.967215 392.360652,283.967215 406,278 C419.639348,272.032785 446.639348,270.366119 487,273" id="Path-16" stroke="#6C63FF" stroke-width="2" fill-rule="nonzero"></path>
                    <path d="M488,273 C505.333333,257.666667 528.333333,249 557,247 C585.666667,245 613,249.833333 639,261.5" id="Path-17" stroke="#6C63FF" stroke-width="2" fill-rule="nonzero"></path>
                    <path d="M359,328 C342.333333,292 317.333333,254.666667 284,216 C250.666667,177.333333 213.666667,150 173,134" id="Path-18" stroke="#6C63FF" stroke-width="2" fill-rule="nonzero"></path>
                </g>
            </g>
        </g>
    </g>
</svg>