<?xml version="1.0" encoding="UTF-8"?>
<svg width="532px" height="499px" viewBox="0 0 532 499" version="1.1" xmlns="http://www.w3.org/2000/svg" xmlns:xlink="http://www.w3.org/1999/xlink">
    <!-- Generator: Sketch 52.6 (67491) - http://www.bohemiancoding.com/sketch -->
    <title>CTA IMAGE</title>
    <desc>Created with Sketch.</desc>
    <defs>
        <polygon id="path-1" points="426.395696 409.71957 457.895696 464.71957 394.895696 464.71957"></polygon>
        <filter x="-26.0%" y="-32.9%" width="167.8%" height="176.5%" filterUnits="objectBoundingBox" id="filter-2">
            <feMorphology radius="6" operator="dilate" in="SourceAlpha" result="shadowSpreadOuter1"></feMorphology>
            <feOffset dx="10" dy="12" in="shadowSpreadOuter1" result="shadowOffsetOuter1"></feOffset>
            <feMorphology radius="6" operator="erode" in="SourceAlpha" result="shadowInner"></feMorphology>
            <feOffset dx="10" dy="12" in="shadowInner" result="shadowInner"></feOffset>
            <feComposite in="shadowOffsetOuter1" in2="shadowInner" operator="out" result="shadowOffsetOuter1"></feComposite>
            <feColorMatrix values="0 0 0 0 0.184313725   0 0 0 0 0.294117647   0 0 0 0 0.431372549  0 0 0 0.0868716033 0" type="matrix" in="shadowOffsetOuter1"></feColorMatrix>
        </filter>
        <circle id="path-3" cx="111.5" cy="30.5" r="30.5"></circle>
        <filter x="-19.7%" y="-19.7%" width="155.7%" height="159.0%" filterUnits="objectBoundingBox" id="filter-4">
            <feMorphology radius="6" operator="dilate" in="SourceAlpha" result="shadowSpreadOuter1"></feMorphology>
            <feOffset dx="10" dy="12" in="shadowSpreadOuter1" result="shadowOffsetOuter1"></feOffset>
            <feMorphology radius="6" operator="erode" in="SourceAlpha" result="shadowInner"></feMorphology>
            <feOffset dx="10" dy="12" in="shadowInner" result="shadowInner"></feOffset>
            <feComposite in="shadowOffsetOuter1" in2="shadowInner" operator="out" result="shadowOffsetOuter1"></feComposite>
            <feColorMatrix values="0 0 0 0 0.184313725   0 0 0 0 0.294117647   0 0 0 0 0.431372549  0 0 0 0.0868716033 0" type="matrix" in="shadowOffsetOuter1"></feColorMatrix>
        </filter>
    </defs>
    <g id="Main-Design" stroke="none" stroke-width="1" fill="none" fill-rule="evenodd">
        <g id="Booklov-Landing-Page" transform="translate(-240.000000, -3208.000000)">
            <g id="CONTENT-3" transform="translate(240.000000, 3214.000000)">
                <g id="CTA-IMAGE">
                    <circle id="Oval" fill="#00B7F3" opacity="0.14906529" cx="333" cy="196" r="155"></circle>
                    <g id="Triangle" transform="translate(426.395696, 437.219570) rotate(-33.000000) translate(-426.395696, -437.219570) ">
                        <use fill="black" fill-opacity="1" filter="url(#filter-2)" xlink:href="#path-1"></use>
                        <use stroke="#F8E587" stroke-width="12" xlink:href="#path-1"></use>
                    </g>
                    <g id="Oval">
                        <use fill="black" fill-opacity="1" filter="url(#filter-4)" xlink:href="#path-3"></use>
                        <use stroke="#F8E587" stroke-width="12" xlink:href="#path-3"></use>
                    </g>
                    <g id="undraw_absorbed_in_xahs" transform="translate(0.000000, 31.000000)">
                        <circle id="Oval" fill="#FF6584" cx="18.5" cy="30.5" r="18.5"></circle>
                        <polygon id="Path" fill="#E6E6E6" points="113.205128 115.71987 113.205128 108.351792 85 108.351792 85 115.71987 79.3589744 115.71987 79.3589744 12 19 12 19 186 68.6410256 186 79.3589744 186 129 186 129 115.71987"></polygon>
                        <path d="M324.039922,97 C324.039922,97 324.001709,97.0369183 323.935453,97.1015848 L323.936016,97 L323.933268,97.1036936 C322.509147,98.4944014 306.652895,114.205469 300.501224,130.140907 C298.459168,127.8595 297.01484,126.467656 297.01484,126.467656 C297.01484,126.467656 296.989825,126.491843 296.946388,126.534256 L296.946799,126.467656 L296.945014,126.535636 C295.784467,127.668848 280,143.310076 280,155.704632 C280,167.671366 286.589022,172.394047 295.069963,172.996715 L294.454708,184.800578 L296.17333,184.800578 L296.363367,173.056813 C296.579652,173.061715 296.796557,173.064994 297.01484,173.064994 C303.28156,173.064994 308.753234,171.062267 311.705793,165.914872 C314.698783,167.100916 317.860537,167.801553 321.072645,167.990542 L320.133816,186 L322.756004,186 L323.045905,168.082228 C323.37587,168.089685 323.706894,168.094666 324.039922,168.094666 C338.377347,168.094666 350,161.239817 350,141.607564 C350,121.97531 324.039922,97 324.039922,97 Z" id="Path" fill="#F2F2F2"></path>
                        <path d="M261.857986,108.933626 L261.857986,98.5593141 L230.179937,98.5593141 L230.179937,108.933626 L215.472272,108.933626 L215.472272,67.8983024 L201.330286,67.8983024 L201.330286,52 L169.652237,52 L169.652237,67.8983024 L154.944571,67.8983024 L154.944571,132.31832 C152.812133,129.63938 150.525074,127.088215 148.095161,124.677954 C148.095161,124.677954 148.069954,124.702244 148.026352,124.744835 L148.026731,124.677954 L148.024937,124.746226 C146.858948,125.884311 131,141.592805 131,154.040665 C131,166.058862 137.620113,170.801853 146.141106,171.407113 L145.522881,183.261739 L147.249679,183.261739 L147.440579,171.46747 C147.657851,171.472392 147.875853,171.475686 148.095161,171.475686 C150.414349,171.504986 152.724312,171.177337 154.9446,170.504152 L154.9446,186 L276,186 L276,108.933626 L261.857986,108.933626 Z" id="Path" fill="#F2F2F2"></path>
                        <path d="M505.910182,97.5912652 C505.910182,97.5912652 505.871779,97.6283531 505.805191,97.6933166 L505.805757,97.5912652 L505.802996,97.6954351 C504.321636,99.1414656 487.301139,115.999479 481.640569,132.567468 L481.640569,124.354451 L427.320285,42 L373,124.354451 L373,186.26228 L481.640569,186.26228 L481.640569,154.253695 C485.112117,163.997584 493.208991,168.217466 502.928089,168.907829 L501.984568,187 L504.61986,187 L504.91121,168.999935 C505.242824,169.007427 505.575501,169.01243 505.910194,169.01243 C520.319266,169.01243 532,162.126099 532,142.403679 C532,122.681259 505.910182,97.5912652 505.910182,97.5912652 Z" id="Path" fill="#F2F2F2"></path>
                        <ellipse id="Oval" fill="#F2F2F2" cx="86.5" cy="201.5" rx="71.5" ry="6.5"></ellipse>
                        <ellipse id="Oval" fill="#F2F2F2" cx="484" cy="285" rx="32" ry="3"></ellipse>
                        <ellipse id="Oval" fill="#F2F2F2" cx="142" cy="234" rx="32" ry="3"></ellipse>
                        <path d="M498,273.823113 C498,282.107412 493.075381,285 487.000026,285 C486.859284,285 486.718758,284.998438 486.578448,284.995313 C486.296962,284.989279 486.018153,284.975876 485.742678,284.957109 C480.259787,284.569055 476,281.527711 476,273.82313 C476,265.849802 486.189034,255.788814 486.954396,255.044231 L486.955737,255.042896 C486.985231,255.014079 486.999974,255 486.999974,255 C486.999974,255 498,265.538813 498,273.823113 Z" id="Path" fill="#6C63FF"></path>
                        <path d="M486.314578,283.737122 L490.240674,278.114647 L486.304764,284.354468 L486.294307,285 C486.019615,284.993965 485.747535,284.98056 485.478709,284.961791 L485.901872,276.672191 L485.898595,276.607842 L485.905803,276.595778 L485.945724,275.812866 L482,269.557629 L485.958149,275.225682 L485.967314,275.391918 L486.287121,269.128634 L482.909084,262.6649 L486.328311,268.029315 L486.661204,255.044238 L486.662512,255 L486.662512,255.042903 L486.606923,265.282407 L489.969913,261.223069 L486.593195,266.164518 L486.504244,271.772246 L489.644212,266.390409 L486.49117,272.597402 L486.441464,275.714962 L491,268.224361 L486.424459,276.80286 L486.314578,283.737122 Z" id="Path" fill="#3F3D56"></path>
                        <ellipse id="Oval" fill="#F2F2F2" cx="59.5" cy="387.5" rx="59.5" ry="5.5"></ellipse>
                        <path d="M85,365.136513 C85,380.600535 75.8222757,386 64.4999972,386 C64.2377066,386 63.9758341,385.99708 63.7143798,385.991239 C63.1897872,385.979977 62.6701951,385.954963 62.156852,385.919927 C51.9386891,385.195583 44,379.518394 44,365.136513 C44,350.252975 62.9886989,331.472468 64.4150586,330.082563 L64.4175617,330.080068 C64.4725262,330.02627 64.4999972,330 64.4999972,330 C64.4999972,330 85,349.672496 85,365.136513 Z" id="Path" fill="#6C63FF"></path>
                        <path d="M64.1497747,383.642679 L71.5657077,373.147381 L64.131249,384.795068 L64.1114939,386 C63.5926288,385.988736 63.0787094,385.963718 62.5709709,385.928676 L63.37027,370.454734 L63.3640948,370.334614 L63.3776803,370.312092 L63.4530349,368.850658 L56,357.174189 L63.4764839,367.754577 L63.493797,368.064879 L64.0978803,356.373405 L57.7171851,344.307799 L64.1757051,354.321388 L64.8045061,330.082576 L64.8069818,330 L64.8069818,330.08008 L64.702003,349.193853 L71.0542978,341.616409 L64.676067,350.840466 L64.5080559,361.308244 L70.4390822,351.262132 L64.483355,362.848513 L64.3894634,368.667976 L73,354.68549 L64.3573354,370.698722 L64.1497747,383.642679 Z" id="Path" fill="#3F3D56"></path>
                        <path d="M168,128.037804 C168,160.622602 148.748244,172 125,172 C101.251756,172 82,160.622602 82,128.037804 C82,95.4530056 125,54 125,54 C125,54 168,95.4530056 168,128.037804 Z" id="Path" fill="#6C63FF"></path>
                        <polygon id="Path" fill="#3F3D56" points="123.25806 166.465774 123.697874 139.32819 142 105.754471 123.766578 135.071126 123.96424 122.868558 136.578066 98.5786162 124.016613 119.639197 124.016613 119.639762 124.372519 97.6932101 137.879488 78.3554439 124.42827 94.2419333 124.650711 54 123.254118 107.27344 123.368999 105.075735 109.63621 83.9982138 123.14881 109.294402 121.869351 133.804566 121.831057 133.154063 106 110.973737 121.78319 135.452279 121.623258 138.51732 121.594538 138.563624 121.60749 138.815467 118.361537 201 122.69886 201 123.219203 168.880313 138.963537 144.461625"></polygon>
                        <path d="M92,128.037804 C92,160.622602 72.7482445,172 49,172 C25.2517555,172 6,160.622602 6,128.037804 C6,95.4530056 49,54 49,54 C49,54 92,95.4530056 92,128.037804 Z" id="Path" fill="#6C63FF"></path>
                        <polygon id="Path" fill="#3F3D56" points="47.2583299 166.465774 47.698151 139.32819 66 105.754471 47.7668554 135.071126 47.9645215 122.868558 60.5785439 98.5786162 48.0168945 119.639197 48.0168945 119.639762 48.3728061 97.6932101 61.8794231 78.3554439 48.428558 94.2419333 48.6504396 54 47.2543879 107.27344 47.3692707 105.075735 33.6362669 83.9982138 47.1490786 109.294402 45.8695992 133.804566 45.8313049 133.154063 30 110.973737 45.7834371 135.452279 45.6235022 138.51732 45.5947815 138.563624 45.6077339 138.815467 42.3617308 201 46.6991209 201 47.2194725 168.880313 62.9640522 144.461625"></polygon>
                        <path d="M150,99.7628057 C150,143.669442 123.80866,159 91.5000028,159 C59.1913455,159 33,143.669442 33,99.7628057 C33,55.8561694 91.5000255,0 91.5000255,0 C91.5000255,0 150,55.856192 150,99.7628057 Z" id="Path" fill="#F2F2F2"></path>
                        <polygon id="Path" fill="#3F3D56" points="89.4904562 152.24976 90.0890403 115.512099 115 70.0620466 90.1831359 109.748874 90.4518185 93.2302671 107.620864 60.3479459 90.5232405 88.8588087 90.5232405 88.8588087 91.0073227 59.1489464 109.391676 32.9705079 91.0832793 54.4773142 91.3854056 0 89.4853547 72.1180396 89.6412359 69.1428701 70.9496553 40.6099606 89.3419439 74.8540875 87.6000416 108.034887 87.5484591 107.154151 66 77.1271554 87.4832724 110.265557 87.2650386 114.414853 87.2259266 114.477036 87.2440655 114.817911 82.8255402 199 88.7291888 199 89.4371732 155.51832 110.867729 122.461886"></polygon>
                        <path d="M148.999981,227.500387 C149.001904,228.356274 148.85662,229.206117 148.570483,230.012753 C148.153286,231.179771 147.455625,232.226333 146.538909,233.060319 C145.574882,233.932996 144.400017,234.539262 143.130213,234.81931 C142.595535,234.940159 142.049009,235.000764 141.500847,234.999993 C140.134346,234.997242 138.794014,234.62503 137.621747,233.922762 C136.536977,233.26379 135.63552,232.342351 135.000459,231.243368 C133.42775,228.51177 133.730601,225.088268 135.758416,222.67522 C137.786231,220.262172 141.106288,219.374506 144.067667,220.453621 C147.029047,221.532736 148.999809,224.348354 148.999981,227.500393 L148.999981,227.500387 Z" id="Path" fill="#3F3D56"></path>
                        <polygon id="Path" fill="#F2F2F2" points="136.346649 222.08773 136.916028 222 138 223.726734 137.30931 225.727327 135.534649 226 135 225.145821"></polygon>
                        <polygon id="Path" fill="#F2F2F2" points="140.220386 230.726182 138.220386 231 137 229.273522 137.780165 227.273226 139.779614 227 141 228.725885"></polygon>
                        <path d="M138,232.729828 L137.504882,234 C136.468285,233.321722 135.60686,232.373287 135,231.242107 L136.778503,231 L138,232.729828 Z" id="Path" fill="#F2F2F2"></path>
                        <polygon id="Path" fill="#F2F2F2" points="142.220278 224.726182 140.220554 225 139 223.273522 139.779722 221.273818 141.779997 221 143 222.726478"></polygon>
                        <polygon id="Path" fill="#F2F2F2" points="145.220386 228.726182 143.220386 229 142 227.273522 142.779614 225.273818 144.779614 225 146 226.726478"></polygon>
                        <path d="M144,233.698033 L143.557008,234.817434 C143.046075,234.939537 142.523819,235.000772 142,234.999993 C141.46617,235.000188 140.934026,234.93664 140.413683,234.810556 L140,234.235345 L140.778504,232.268662 L142.778504,232 L144,233.698033 Z" id="Path" fill="#F2F2F2"></path>
                        <path d="M148,223.755905 L146.158597,224 L145,222.416483 L145.571589,221 C146.604177,221.675559 147.442953,222.627452 148,223.755905 Z" id="Path" fill="#F2F2F2"></path>
                        <path d="M149,230 C148.534041,231.148803 147.754839,232.17903 146.730979,233 L146,232.151007 L146.909902,230.234918 L149,230 Z" id="Path" fill="#F2F2F2"></path>
                        <ellipse id="Oval" fill="#F2F2F2" cx="309.5" cy="449" rx="137.5" ry="8"></ellipse>
                        <path d="M242,425.99021 L213.009801,452 C200.011254,446.300077 191.380788,436.600559 187,423.009813 L215.990199,397 C216.17287,414.090377 225.022468,423.596537 242,425.99021 Z" id="Path" fill="#E6E6E6"></path>
                        <polygon id="Rectangle" fill="#3F3D56" transform="translate(203.229490, 417.013363) rotate(-40.499160) translate(-203.229490, -417.013363) " points="190.331061 416.731896 216.127791 416.737861 216.127919 417.294829 190.33119 417.288864"></polygon>
                        <polygon id="Rectangle" fill="#3F3D56" transform="translate(205.559365, 420.665347) rotate(-42.058890) translate(-205.559365, -420.665347) " points="192.830119 420.387714 218.288482 420.393644 218.28861 420.942979 192.830247 420.93705"></polygon>
                        <path d="M256,330.885304 L217.584355,335 C210.447007,322.717613 209.144702,309.749673 213.519351,296.114696 L251.934996,292 C242.152422,306.013645 243.743171,318.953141 256,330.885304 Z" id="Path" fill="#F2F2F2"></path>
                        <polygon id="Rectangle" fill="#3F3D56" transform="translate(230.007234, 301.313155) rotate(-4.641280) translate(-230.007234, -301.313155) " points="217.106351 301.034238 242.908096 301.035212 242.908117 301.592072 217.106372 301.591098"></polygon>
                        <polygon id="Rectangle" fill="#3F3D56" transform="translate(229.755280, 305.637132) rotate(-6.201010) translate(-229.755280, -305.637132) " points="217.02348 305.36188 242.487053 305.36316 242.487081 305.912383 217.023508 305.911103"></polygon>
                        <path d="M220.898353,249 L195,219.898356 C200.7537,206.920016 210.490218,198.326856 224.101647,194 L250,223.10165 C232.905164,223.215313 223.361155,232.028458 220.898353,249 Z" id="Path" fill="#E6E6E6"></path>
                        <polygon id="Rectangle" fill="#3F3D56" transform="translate(229.809484, 210.093618) rotate(-40.267680) translate(-229.809484, -210.093618) " points="229.528 197.196158 230.08501 197.196287 230.090967 222.991078 229.533957 222.99095"></polygon>
                        <polygon id="Rectangle" fill="#3F3D56" transform="translate(226.146378, 212.407653) rotate(-41.827400) translate(-226.146378, -212.407653) " points="225.868735 199.679043 226.418098 199.679171 226.424022 225.136264 225.874659 225.136136"></polygon>
                        <polygon id="Rectangle" fill="#3F3D56" transform="translate(255.658340, 151.157997) rotate(-30.000000) translate(-255.658340, -151.157997) " points="240.355368 113.491874 270.946036 113.498076 270.961312 188.82412 240.370644 188.817918"></polygon>
                        <polygon id="Rectangle" fill="#6C63FF" transform="translate(244.349549, 133.244244) rotate(-30.925350) translate(-244.349549, -133.244244) " points="232.061768 132.962574 256.637214 132.967647 256.637329 133.525913 232.061883 133.52084"></polygon>
                        <polygon id="Rectangle" fill="#6C63FF" transform="translate(247.704089, 137.925584) rotate(-30.925350) translate(-247.704089, -137.925584) " points="235.416309 137.643914 259.991754 137.648987 259.99187 138.207253 235.416424 138.20218"></polygon>
                        <polygon id="Rectangle" fill="#6C63FF" transform="translate(249.970328, 141.889648) rotate(-30.925350) translate(-249.970328, -141.889648) " points="237.682547 141.607979 262.257993 141.613052 262.258108 142.171318 237.682662 142.166245"></polygon>
                        <polygon id="Rectangle" fill="#6C63FF" transform="translate(253.369691, 146.986304) rotate(-30.925350) translate(-253.369691, -146.986304) " points="241.08191 146.704635 265.657356 146.709708 265.657471 147.267974 241.082025 147.262901"></polygon>
                        <polygon id="Rectangle" fill="#6C63FF" transform="translate(258.468730, 154.348271) rotate(-30.925350) translate(-258.468730, -154.348271) " points="246.180879 154.066602 270.756467 154.071675 270.756582 154.629941 246.180994 154.624868"></polygon>
                        <path d="M346.017459,193.568322 C346.017459,193.568322 360.681938,186.559825 371.117096,189.172179 L346.017459,121.907117 L346.017459,115 L381.544403,198.99536 C390.426877,215.632543 401.656658,253.551581 382.51044,256.595626 C360.78843,260.049179 321.688809,273 321.688809,273 L313,197.885264 L346.017459,193.568322 Z" id="Path" fill="#2F2E41"></path>
                        <path d="M261,171.207211 C261,171.207211 237.758822,141.854672 231.733333,152.214389 C225.707843,162.574106 258.793807,180 258.793807,180 L261,171.207211 Z" id="Path" fill="#FFB9B9"></path>
                        <path d="M269,172.280004 L259.222222,167 C259.222222,167 253,182.84 253,185.479999 C253,188.119998 262.777778,189 262.777778,189 L269,172.280004 Z" id="Path" fill="#D0CDE1"></path>
                        <circle id="Oval" fill="#FFB9B9" cx="305.5" cy="83.5" r="22.5"></circle>
                        <path d="M322.591433,81 C322.591433,81 332.12721,109.557692 339.062317,111.288458 C345.997423,113.019225 312.188764,126 312.188764,126 C312.188764,126 301.786096,101.769228 296.584765,95.7115361 C291.383434,89.6538444 322.591433,81 322.591433,81 Z" id="Path" fill="#FFB9B9"></path>
                        <path d="M376.541195,247.815003 C395.142458,244.819938 384.875617,208.257008 376.161535,191 C376.951214,191.605886 377.659044,192.312778 378.267133,193.102809 C386.896836,204.392628 404.156245,253.025699 382.581987,256.499491 C361.007729,259.973283 322.174061,273 322.174061,273 L321,262.720891 C332.096538,259.136042 359.623729,250.538975 376.541195,247.815003 Z" id="Path" fill="#000000" opacity="0.1"></path>
                        <path d="M406.024904,396 C406.024904,396 427.629965,413.306125 425.901563,415.036735 C424.173161,416.767344 406.024904,444.457145 390.46926,447.053062 C374.913615,449.648979 368,449.648979 368,447.053062 C368,444.457145 372.321009,438.400002 380.098834,435.804079 C387.876659,433.208156 388.740857,415.902042 387.876653,412.440817 C387.012449,408.979592 406.024904,396 406.024904,396 Z" id="Path" fill="#2F2E41"></path>
                        <path d="M340.954091,268 L354.755586,332.912278 C354.755586,332.912278 411.686742,396.95908 409.961569,397.824556 C408.236396,398.690033 390.984515,416 387.534141,416 C384.083768,416 324.564833,348.491208 324.564833,348.491208 L303,292.233879 L340.954091,268 Z" id="Path" fill="#2F2E41"></path>
                        <path d="M340.954091,268 L354.755586,332.912278 C354.755586,332.912278 411.686742,396.95908 409.961569,397.824556 C408.236396,398.690033 390.984515,416 387.534141,416 C384.083768,416 324.564833,348.491208 324.564833,348.491208 L303,292.233879 L340.954091,268 Z" id="Path" fill="#000000" opacity="0.1"></path>
                        <path d="M355,247.071747 C355,247.071747 348.062137,276.445313 328.982932,296.31569 C309.903726,316.186067 301.231389,356.790705 301.231389,356.790705 L282.152217,438 C282.152217,438 248.330032,433.680354 250.0645,425.041066 L268.276446,353.334972 C268.276446,353.334972 289.090097,253.983162 300.364163,247.071741 C311.638229,240.16032 355,247.071747 355,247.071747 Z" id="Path" fill="#2F2E41"></path>
                        <path d="M281.063574,430.850616 C281.063574,430.850616 286.283884,447.424195 282.803681,449.168779 C279.323478,450.913364 217.549784,454.402544 214.069604,442.190453 C214.069604,442.190453 212.329497,436.084398 226.250331,436.084398 C240.171165,436.084398 254.962047,423 254.962047,423 L281.063574,430.850616 Z" id="Path" fill="#2F2E41"></path>
                        <path d="M306.673008,122.81957 C306.673008,122.81957 329.02695,100.367699 335.04532,102.094763 C341.06369,103.821828 341.06369,112.457167 341.06369,112.457167 C341.06369,112.457167 359.978568,115.047766 358.259036,177.222151 C356.539504,239.396537 373.734845,246.30484 367.716475,249.758957 C361.698105,253.213075 292.916731,268.756716 290.33742,253.213131 C287.758108,237.669546 288.617888,178.085726 295.496021,159.08799 C302.374154,140.090253 310.97183,128.000769 306.673008,122.81957 Z" id="Path" fill="#575A89"></path>
                        <path d="M335.272396,128.146505 C335.272396,128.146505 361.174884,140.226142 346.49681,163.522581 C331.818737,186.819021 320.59434,211.841138 305.052832,210.978299 C289.511323,210.115461 265.335689,195.447338 258.428358,195.447338 C251.521027,195.447338 261.018611,170.425232 266.199106,169.562399 C271.379601,168.699567 295.555253,183.367701 295.555253,183.367701 C295.555253,183.367701 304.18942,124.69518 335.272396,128.146505 Z" id="Path" fill="#575A89"></path>
                        <path d="M318.086439,86.3802454 C316.155771,86.2654422 314.270606,86.9156862 312.353333,87.1693634 C305.493864,88.0769476 298.357911,83.1163642 296.843355,76.3875144 C296.721955,75.4914508 296.453973,74.6212824 296.05007,73.8116273 C294.99437,72.0939029 292.590059,71.7663807 290.608059,72.161372 C288.626059,72.5563633 286.747304,73.4808232 284.72884,73.5863666 C281.612293,73.7493342 278.620257,71.8372055 276.959344,69.2040648 C275.29843,66.5709241 274.828149,63.3308635 275.052366,60.2287101 L276.546421,61.7914355 C277.153516,60.511452 277.387905,59.0873408 277.222918,57.6811485 C278.832916,57.2538267 280.550043,57.6917058 281.75622,58.8371713 C283.073623,58.9768928 282.079344,56.40195 283.058082,55.5120664 C283.467911,55.1394453 284.096238,55.2097469 284.650987,55.2150764 C287.453599,55.2420082 289.720775,53.1056823 291.929291,51.3859274 C295.755846,48.4128172 300.230624,46.3786476 304.991942,45.4478337 C308.156635,44.8326779 311.521883,44.7338234 314.52316,45.9082578 C316.987951,46.8727543 319.051017,48.6294233 320.959741,50.4585211 C325.658521,54.9613139 329.819359,60.2519335 331.774152,66.4493638 C333.363318,71.5255724 333.408334,76.9571272 331.903519,82.0588034 C331.115845,84.7082397 328.741994,93.7818516 325.266732,93.9931602 C320.899986,94.2587477 323.521745,86.7034506 318.086439,86.3802454 Z" id="Path" fill="#2F2E41"></path>
                    </g>
                </g>
            </g>
        </g>
    </g>
</svg>