<?xml version="1.0" encoding="UTF-8"?>
<svg width="101px" height="100px" viewBox="0 0 101 100" version="1.1" xmlns="http://www.w3.org/2000/svg" xmlns:xlink="http://www.w3.org/1999/xlink">
    <!-- Generator: Sketch 52.6 (67491) - http://www.bohemiancoding.com/sketch -->
    <title>Shape</title>
    <desc>Created with Sketch.</desc>
    <g id="Page-1" stroke="none" stroke-width="1" fill="none" fill-rule="evenodd">
        <g id="piskczlogoSVG" fill="#6C63FF">
            <path d="M13.6303237,16.6860307 C22.7887564,6.44787053 36.1005111,0 50.9063032,0 C78.5042589,0 100.911414,22.407155 100.911414,50.0064736 C100.911414,77.606644 78.5042589,100.013799 50.9063032,100.013799 C37.0919932,100.013799 24.5775128,94.3988075 15.5229983,85.3306644 L27.7546848,72.783816 C27.8415673,72.6918228 27.8654174,72.6696763 27.9454855,72.5708688 C28.9011925,71.3971039 28.8534923,69.5964225 27.8943782,68.4771721 C27.8109029,68.3800681 27.7870528,68.3579216 27.6984668,68.267632 L26.0306644,66.6424191 C25.4667802,66.1160136 24.7427598,65.7991482 23.9761499,65.739523 C23.8875639,65.7361158 23.8228279,65.7224872 23.5451448,65.7446337 C22.7819421,65.8059625 22.0630324,66.1603066 21.5144804,66.6986371 L9.89608177,78.6151618 C5.22146508,71.9303237 2.13969336,64.0512777 1.20102215,55.529983 L16.8040886,55.529983 C16.9437819,55.5265758 16.9778535,55.5282794 17.1175468,55.5146508 C18.5945486,55.3681431 19.8398637,54.1 19.9829642,52.6482112 C19.9965928,52.5093697 19.9948893,52.474276 19.9982964,52.3350937 L19.9982964,50.0064736 C19.9948893,49.8672913 19.9965928,49.8321976 19.9829642,49.6935264 C19.8637138,48.4892675 19.0102215,47.4037479 17.8807496,46.9989779 C17.6098807,46.9022147 17.4701874,46.8536627 16.9608177,46.816184 C16.9080068,46.8148211 16.8568995,46.8136286 16.8040886,46.8122658 L1,46.8122658 C1.53151618,38.3809199 4.15843271,30.513799 8.36286201,23.7258944 L21.1311755,36.1802385 C21.2231687,36.267121 21.2453152,36.2906303 21.3441227,36.3710392 C22.5093697,37.3187394 24.3151618,37.2816014 25.4378194,36.3202726 C25.5349233,36.2373083 25.5570698,36.2134583 25.6473595,36.1241908 L27.274276,34.4574106 C27.3611584,34.3642249 27.3833049,34.3422487 27.4650767,34.2434412 C28.4190801,33.0705281 28.3730835,31.269506 27.4139693,30.1495741 C27.330494,30.0528109 27.306644,30.0313458 27.2180579,29.9403748 L13.6303237,16.6860307 Z M62.9948893,88.8655877 C63.2316865,88.8383305 63.4735945,88.8383305 63.7052811,88.7855196 C64.6422487,88.5708688 65.4599659,87.9149915 65.8722317,87.058092 C66.1516184,86.4788756 66.1192504,86.2982964 66.1890971,85.6713799 L66.1890971,64.6168654 L66.3339012,64.5981261 C74.2725724,63.5231687 81.4804089,58.4379898 85.1737649,51.3875639 C89.5468484,43.0425894 88.6558773,32.6076661 83.3100511,25.1863714 C80.1618399,20.813799 75.5877342,17.588075 70.5008518,15.9597956 L70.4889267,15.9139693 C69.6252129,12.5674617 66.4327087,10.0202726 63.0459966,9.98773424 C61.9574106,9.98381601 60.8722317,10.2105622 59.8807496,10.658092 C57.7308348,11.6287905 56.1737649,13.6449744 55.5519591,15.9103918 C53.471891,16.5567291 51.4735945,17.4708688 49.6337308,18.6350937 C43.4020443,22.5800681 39.0664395,29.3930153 38.1618399,36.69046 C37.8858603,38.9103918 37.9693356,41.1311755 37.9693356,43.3722317 C37.988075,43.5717206 37.9897785,43.7739353 38.0255537,43.9708688 C38.1277683,44.4998296 38.2265758,44.6105622 38.4667802,45.0839864 L38.8364566,45.5591141 C38.8977853,45.625724 38.9608177,45.6930153 39.0204429,45.7616695 C41.3236797,48.3739353 41.483816,52.4553663 39.516184,55.2165247 C39.1908007,55.6730835 38.7666099,56.0478705 38.4667802,56.5180579 C38.1448041,57.025724 38.0272572,57.6253833 37.9693356,58.2301533 L37.9693356,85.6713799 C38.0408859,86.2982964 38.0068143,86.4788756 38.286201,87.058092 C38.4940375,87.4890971 38.7972743,87.8689949 39.1720613,88.1688245 C39.725724,88.6100511 40.4463373,88.7855196 41.1635434,88.8655877 L62.9948893,88.8655877 Z M62.9335605,21.1577513 C56.6132879,21.1875639 50.3833049,24.6637138 47.0562181,30.1367973 C45.2998296,33.0267462 44.362862,36.4059625 44.3577513,39.7964225 L44.3577513,42.1947189 C44.3816014,42.2253833 44.4054514,42.2562181 44.4293015,42.2870528 C47.4821124,46.2960818 48.1959114,52.0504259 45.9914821,56.7463373 C45.548552,57.6901193 45,58.5844974 44.3577513,59.4073254 L44.3577513,82.4771721 L59.8006814,82.4771721 L59.8006814,61.6253833 C59.8705281,60.9984668 59.8381601,60.8178876 60.1158433,60.2403748 C60.528109,59.3834753 61.3441227,58.7258944 62.2793867,58.5112436 C62.967632,58.3545145 63.669506,58.4311755 64.3713799,58.3800681 C72.7972743,57.7650767 80.4327087,50.8511073 81.4957411,42.0529813 C82.3015332,35.388586 79.2367973,28.4057922 73.6388416,24.4993186 C70.6098807,22.3848382 66.9642249,21.2126065 63.2367973,21.1592845 C63.1362862,21.158092 63.0357751,21.1575809 62.9335605,21.1577513 Z" id="Shape" transform="translate(50.955707, 50.006899) rotate(90.000000) translate(-50.955707, -50.006899) "></path>
        </g>
    </g>
</svg>