<?xml version="1.0" standalone="no"?>
<!DOCTYPE svg PUBLIC "-//W3C//DTD SVG 20010904//EN"
 "http://www.w3.org/TR/2001/REC-SVG-20010904/DTD/svg10.dtd">
<svg version="1.0" xmlns="http://www.w3.org/2000/svg"
 width="2056.000000pt" height="2056.000000pt" viewBox="0 0 2056.000000 2056.000000"
 preserveAspectRatio="xMidYMid meet">
<metadata>
Created by potrace 1.11, written by Peter Selinger 2001-2013
</metadata>
<g transform="translate(0.000000,2056.000000) scale(0.100000,-0.100000)"
fill="#000000" stroke="none">
<path d="M10929 20503 c-1 -4 -2 -196 -3 -425 -1 -273 2 -418 9 -418 7 0 7 -3
0 -8 -13 -9 -13 -225 0 -234 6 -5 7 -8 0 -8 -6 0 -10 -45 -10 -115 0 -70 4
-115 10 -115 7 0 7 -3 0 -8 -13 -9 -13 -225 0 -234 6 -5 7 -8 0 -8 -6 0 -10
-45 -10 -115 0 -70 4 -115 10 -115 7 0 7 -3 0 -8 -14 -10 -14 -864 0 -874 7
-5 7 -8 0 -8 -6 0 -10 -45 -10 -115 0 -70 4 -115 10 -115 7 0 7 -3 0 -8 -6 -4
-10 -78 -11 -182 0 -96 -3 -195 -6 -220 -6 -50 -39 -153 -51 -158 -4 -2 -5 -8
-1 -13 3 -5 0 -9 -5 -9 -6 0 -11 -9 -11 -19 0 -11 -3 -21 -7 -23 -5 -1 -25
-29 -47 -60 -21 -32 -42 -55 -47 -52 -5 3 -9 -1 -9 -8 0 -8 -30 -38 -66 -66
-36 -29 -63 -47 -59 -40 3 7 1 6 -7 -2 -14 -17 -68 -45 -80 -42 -5 1 -8 -2 -8
-7 0 -5 -18 -12 -40 -16 -22 -4 -40 -11 -40 -16 0 -5 -3 -8 -7 -7 -5 1 -39 -2
-78 -7 -83 -10 -607 -10 -650 0 -16 4 -40 6 -52 6 -13 0 -23 4 -23 9 0 6 -10
10 -23 10 -13 0 -28 5 -35 12 -7 7 -12 9 -12 5 0 -10 -106 47 -153 83 -30 22
-158 150 -151 150 4 0 -4 15 -18 33 -21 28 -50 82 -52 97 -1 3 -5 11 -9 18 -5
7 -10 26 -12 43 -3 17 -10 38 -17 47 -11 13 -11 14 1 7 10 -6 12 -4 6 5 -4 7
-10 25 -12 39 -9 55 -9 657 0 669 5 6 6 12 1 12 -5 0 -9 54 -9 119 0 66 4 117
8 114 5 -3 5 3 0 13 -11 23 -10 684 0 702 5 6 4 12 0 12 -5 0 -8 54 -8 119 0
66 4 117 8 114 5 -3 5 3 0 13 -11 23 -11 204 0 222 5 6 4 12 0 12 -5 0 -8 54
-8 119 0 66 4 117 8 114 5 -3 4 3 -1 14 -12 21 -11 41 1 61 5 6 4 12 0 12 -5
0 -8 54 -8 119 0 66 4 117 8 114 5 -3 4 3 -1 14 -12 21 -11 41 1 61 5 6 4 12
0 12 -5 0 -8 54 -8 119 0 66 4 117 8 114 5 -3 4 3 -1 14 -12 21 -11 41 1 61 5
6 4 12 0 12 -5 0 -9 44 -9 98 1 97 1 97 -24 97 -14 1 -28 -4 -32 -10 -5 -7 -8
-6 -8 2 0 8 -9 9 -30 3 -16 -5 -30 -6 -30 -3 0 3 -6 0 -14 -6 -10 -8 -16 -9
-21 -1 -3 6 -12 7 -18 3 -7 -4 -21 -9 -32 -10 -11 -1 -33 -4 -50 -6 -93 -13
-154 -20 -182 -21 -17 -1 -29 -4 -27 -7 4 -7 -121 -24 -145 -20 -7 1 -11 -1
-8 -6 3 -4 -9 -8 -26 -9 -18 -1 -45 -4 -62 -8 -16 -4 -48 -9 -70 -12 -22 -2
-47 -7 -55 -11 -18 -7 -23 -8 -111 -23 -38 -7 -70 -11 -71 -9 -2 1 -12 -2 -23
-8 -11 -6 -36 -14 -55 -17 -19 -3 -46 -8 -60 -12 -14 -3 -37 -7 -52 -7 -14 -1
-24 -5 -22 -8 3 -6 -92 -24 -108 -21 -5 1 -8 -3 -8 -9 0 -5 -4 -7 -10 -4 -5 3
-16 3 -22 -2 -7 -4 -17 -8 -23 -9 -5 -1 -26 -5 -45 -9 -19 -4 -41 -8 -47 -8
-7 0 -13 -5 -13 -10 0 -5 -9 -7 -20 -4 -11 3 -20 1 -20 -3 0 -4 -22 -11 -50
-15 -27 -4 -50 -11 -50 -16 0 -5 -3 -8 -7 -7 -18 4 -93 -15 -88 -22 3 -5 -6
-7 -20 -4 -14 2 -25 0 -25 -5 0 -5 -22 -12 -50 -16 -27 -4 -50 -12 -50 -18 0
-6 -3 -8 -6 -5 -5 6 -70 -12 -119 -32 -51 -20 -128 -39 -138 -33 -6 3 -7 1 -3
-5 4 -7 -7 -13 -29 -18 -19 -3 -38 -10 -41 -15 -3 -5 -9 -7 -14 -4 -5 3 -11 1
-15 -5 -3 -5 -16 -10 -27 -10 -12 0 -30 -8 -41 -17 -15 -13 -18 -14 -12 -3 8
13 7 13 -8 1 -9 -7 -17 -11 -17 -7 0 4 -11 -1 -24 -10 -14 -8 -27 -15 -30 -15
-24 4 -36 -1 -30 -11 4 -7 3 -8 -5 -4 -6 4 -18 3 -25 -3 -7 -6 -23 -13 -37
-15 -13 -3 -26 -5 -29 -6 -3 -2 -8 -2 -12 -1 -5 0 -8 -4 -8 -10 0 -5 -4 -7
-10 -4 -5 3 -10 1 -10 -5 0 -6 -4 -9 -9 -5 -5 3 -12 1 -16 -5 -4 -6 -10 -8
-15 -5 -5 3 -11 1 -15 -5 -4 -6 -11 -8 -16 -5 -5 4 -9 1 -9 -4 0 -6 -9 -11
-19 -11 -11 0 -23 -5 -26 -10 -4 -6 -10 -8 -15 -5 -5 3 -16 -2 -24 -11 -9 -8
-16 -13 -16 -10 0 4 -17 -1 -37 -10 -21 -8 -42 -16 -48 -17 -5 -1 -13 -6 -16
-10 -3 -4 -16 -9 -27 -10 -12 -1 -22 -4 -22 -8 0 -6 -30 -21 -50 -24 -3 0 -15
-6 -26 -13 -12 -6 -24 -8 -28 -5 -3 3 -6 2 -6 -4 0 -6 -16 -14 -35 -17 -20 -4
-33 -10 -31 -15 3 -4 -15 -13 -40 -20 -24 -7 -44 -17 -44 -21 0 -5 -13 -11
-30 -15 -16 -4 -30 -11 -30 -17 0 -6 -6 -8 -14 -5 -8 3 -20 0 -26 -8 -9 -11
-28 -19 -67 -27 -5 -1 -14 -8 -21 -15 -7 -7 -22 -13 -33 -13 -11 0 -18 -4 -15
-8 3 -5 -11 -14 -31 -21 -20 -8 -57 -26 -82 -41 -25 -14 -49 -27 -53 -29 -26
-7 -45 -17 -56 -30 -11 -13 -12 -13 -6 -1 6 11 2 10 -13 -2 -11 -10 -27 -18
-37 -18 -9 0 -15 -4 -12 -9 3 -4 -13 -13 -35 -20 -22 -7 -37 -16 -34 -20 3 -5
-6 -12 -20 -15 -13 -3 -47 -19 -74 -35 -27 -16 -52 -27 -55 -24 -3 4 -6 1 -6
-5 0 -7 -7 -12 -15 -12 -8 0 -15 -5 -15 -11 0 -5 -4 -7 -10 -4 -5 3 -10 3 -10
-2 0 -4 -26 -21 -57 -38 -32 -16 -66 -38 -77 -47 -10 -10 -23 -15 -27 -12 -4
2 -12 -3 -17 -12 -5 -9 -12 -16 -15 -15 -16 1 -36 -12 -31 -20 3 -5 -1 -6 -8
-4 -8 3 -23 -3 -34 -14 -11 -10 -30 -22 -42 -25 -12 -4 -22 -12 -22 -17 0 -5
-5 -9 -11 -9 -5 0 -38 -19 -71 -42 -34 -23 -68 -41 -74 -41 -7 0 -11 -4 -9 -8
3 -3 -9 -12 -25 -19 -17 -7 -30 -16 -30 -21 0 -5 -11 -11 -25 -15 -14 -3 -22
-10 -19 -15 3 -5 0 -9 -6 -9 -5 0 -33 -16 -60 -35 -28 -19 -50 -32 -50 -28 0
5 -5 0 -11 -9 -5 -10 -16 -18 -23 -18 -20 0 -28 -30 -11 -36 8 -4 15 -12 15
-19 0 -8 9 -17 20 -20 11 -4 18 -10 15 -14 -2 -5 7 -13 21 -20 14 -6 23 -15
20 -20 -3 -4 6 -14 19 -21 13 -7 22 -17 19 -22 -3 -4 0 -8 6 -8 15 0 70 -55
70 -70 0 -7 7 -10 15 -6 8 3 15 1 15 -4 0 -12 190 -200 202 -200 5 0 6 -4 3
-10 -3 -5 -2 -10 3 -10 5 0 84 -74 175 -163 92 -90 167 -163 167 -161 0 1 16
-14 35 -33 19 -19 35 -39 35 -44 0 -5 4 -9 9 -9 5 0 48 -38 95 -85 47 -47 91
-85 96 -85 6 0 9 -3 8 -7 -2 -7 79 -93 87 -93 7 0 105 -104 105 -112 0 -4 3
-7 8 -6 4 1 68 -57 142 -130 74 -74 154 -151 178 -172 23 -21 42 -44 42 -49 0
-6 4 -11 10 -11 5 0 59 -49 119 -109 61 -59 112 -106 115 -104 2 3 7 -5 11
-16 3 -12 10 -21 14 -21 12 0 79 -68 73 -74 -3 -3 -1 -6 5 -6 13 0 109 -93
105 -102 -1 -5 3 -8 9 -8 7 0 35 -24 64 -54 30 -30 56 -52 59 -48 3 3 6 -1 6
-9 0 -8 10 -21 22 -29 11 -8 28 -23 37 -34 9 -10 22 -24 29 -30 7 -6 27 -26
44 -43 17 -18 35 -30 39 -27 5 3 9 -1 9 -9 0 -7 10 -23 23 -34 29 -27 88 -100
106 -132 31 -59 62 -125 76 -166 20 -62 26 -211 11 -290 -4 -22 -8 -49 -9 -60
-1 -11 -5 -23 -10 -26 -4 -3 -9 -14 -11 -25 -2 -11 -13 -37 -25 -57 -11 -20
-18 -37 -15 -37 5 0 -8 -17 -38 -51 -10 -10 -16 -19 -13 -19 11 0 -109 -130
-277 -301 -60 -60 -108 -114 -108 -119 0 -6 -7 -10 -15 -10 -9 0 -18 -7 -21
-15 -4 -8 -10 -12 -15 -9 -5 3 -9 0 -9 -6 0 -6 -11 -15 -25 -20 -14 -5 -25
-14 -25 -19 0 -9 -60 -37 -72 -33 -5 1 -8 -2 -8 -7 0 -9 -57 -27 -72 -23 -5 1
-8 -2 -8 -7 0 -10 -92 -27 -122 -23 -10 1 -18 -2 -18 -6 0 -16 -246 8 -260 27
-3 3 -12 8 -20 10 -8 2 -19 4 -25 5 -46 12 -64 19 -59 27 3 5 -3 9 -14 9 -10
0 -27 8 -38 18 -10 9 -31 23 -46 31 -15 8 -25 18 -22 23 3 4 0 8 -6 8 -6 0
-25 16 -44 35 -18 19 -36 31 -40 28 -3 -4 -6 -1 -6 5 0 14 -47 62 -61 62 -6 0
-8 3 -6 8 4 9 -40 52 -46 45 -3 -2 -8 5 -12 16 -3 12 -10 21 -15 21 -12 0
-140 129 -140 141 0 6 -4 8 -8 5 -11 -6 -42 30 -34 39 4 4 2 5 -4 3 -6 -1 -44
30 -84 70 -40 39 -77 72 -81 72 -4 0 -11 9 -14 20 -4 11 -10 18 -15 15 -5 -3
-12 4 -15 16 -4 11 -9 18 -13 15 -3 -4 -14 6 -24 21 -10 16 -18 24 -18 20 0
-4 -52 43 -115 107 -63 63 -115 112 -115 110 0 -2 -10 7 -23 19 -13 12 -22 25
-20 29 2 4 -6 9 -17 13 -11 4 -18 11 -15 16 4 5 2 9 -3 9 -13 0 -118 102 -114
112 1 4 -3 8 -10 8 -6 0 -47 36 -90 80 -44 44 -84 80 -90 80 -6 0 -9 3 -5 6 3
3 -14 23 -38 44 -24 21 -41 41 -38 44 4 3 1 6 -5 6 -6 0 -66 54 -133 120 -67
66 -127 120 -132 120 -6 0 -8 3 -5 6 7 6 -61 74 -75 74 -4 0 -5 5 -2 10 3 6 2
10 -4 10 -13 0 -101 89 -101 102 0 6 -3 9 -6 6 -4 -5 -124 104 -199 182 -5 6
-28 27 -49 48 -22 20 -58 56 -81 80 -23 23 -47 42 -53 42 -7 0 -11 3 -10 8 2
4 -28 37 -65 74 -37 38 -67 65 -67 62 0 -3 -15 12 -32 34 -18 23 -39 41 -45
41 -7 1 -13 8 -13 16 0 8 -4 15 -9 15 -13 0 -70 58 -63 64 3 3 0 6 -7 6 -7 0
-26 14 -42 31 -25 27 -31 30 -46 18 -29 -24 -63 -60 -64 -67 0 -4 -18 -22 -41
-39 -22 -18 -37 -33 -33 -33 5 0 -15 -22 -43 -49 -28 -27 -48 -52 -45 -55 4
-3 1 -6 -4 -6 -14 0 -107 -98 -182 -190 -20 -24 -48 -56 -62 -70 -14 -14 -29
-34 -33 -44 -3 -10 -10 -16 -13 -12 -4 4 -12 -2 -17 -12 -6 -11 -39 -50 -73
-88 -34 -38 -75 -88 -92 -111 -41 -57 -61 -82 -93 -115 -14 -15 -23 -28 -20
-28 4 0 -2 -7 -12 -15 -11 -8 -16 -15 -11 -15 5 0 0 -10 -13 -22 -41 -43 -72
-81 -72 -90 0 -5 -5 -6 -12 -2 -6 4 -8 3 -4 -4 3 -6 -1 -17 -9 -25 -8 -9 -15
-20 -15 -26 0 -5 -5 -13 -12 -17 -7 -5 -8 -3 -3 6 5 9 4 11 -3 6 -7 -4 -12
-13 -12 -20 0 -12 -10 -27 -58 -87 -13 -16 -20 -29 -16 -29 4 0 -3 -8 -14 -19
-12 -10 -22 -22 -22 -25 0 -4 -16 -27 -35 -50 -19 -24 -35 -48 -35 -54 0 -6
-3 -12 -8 -14 -8 -3 -82 -105 -82 -113 0 -3 -9 -15 -20 -27 -10 -12 -17 -25
-14 -30 3 -4 0 -8 -5 -8 -6 0 -11 -6 -11 -14 0 -8 -3 -16 -7 -18 -9 -4 -53
-65 -53 -73 0 -6 -13 -23 -43 -56 -9 -10 -15 -19 -13 -19 7 0 -16 -40 -62
-107 -23 -35 -39 -63 -35 -63 4 0 4 -4 -2 -8 -10 -7 -28 -36 -53 -84 -7 -16
-18 -28 -23 -28 -5 0 -8 -3 -7 -7 2 -10 -15 -45 -45 -95 -12 -20 -37 -62 -55
-95 -18 -32 -37 -65 -42 -73 -6 -8 -24 -43 -41 -77 -17 -35 -35 -63 -40 -63
-5 0 -8 -3 -8 -7 3 -15 -14 -74 -19 -68 -6 6 -72 -123 -72 -141 0 -6 -9 -19
-20 -29 -11 -10 -17 -21 -15 -26 3 -4 1 -10 -5 -14 -6 -4 -8 -11 -5 -16 4 -5
2 -9 -4 -9 -6 0 -14 -12 -17 -27 -4 -16 -14 -33 -23 -40 -14 -11 -14 -12 -1
-13 9 0 11 -3 5 -8 -14 -9 -66 -120 -68 -143 -1 -10 -4 -16 -8 -13 -8 4 -35
-65 -31 -78 1 -5 -2 -8 -7 -8 -5 0 -12 -14 -16 -30 -4 -19 -11 -28 -18 -23 -7
3 -9 3 -6 -1 4 -4 -8 -43 -27 -87 -18 -43 -30 -79 -26 -79 4 0 1 -4 -6 -9 -7
-4 -14 -18 -15 -29 -1 -12 -5 -22 -9 -22 -4 0 -8 -7 -8 -16 0 -9 -6 -30 -14
-47 -31 -68 -49 -113 -53 -131 -2 -11 -8 -25 -13 -31 -5 -7 -7 -15 -3 -18 3
-4 2 -7 -4 -7 -6 0 -14 -15 -18 -32 -10 -44 -9 -40 -23 -65 -7 -13 -10 -23 -7
-23 3 0 -1 -13 -10 -30 -8 -16 -15 -31 -14 -32 4 -7 -37 -124 -45 -129 -5 -4
-6 -14 -3 -23 4 -9 2 -16 -3 -16 -6 0 -9 -3 -8 -7 3 -15 -14 -63 -23 -63 -5 0
-6 -6 -3 -14 3 -7 -1 -20 -8 -27 -7 -8 -13 -25 -13 -39 1 -14 -4 -28 -10 -32
-5 -4 -11 -15 -12 -25 -4 -40 -15 -78 -26 -92 -10 -12 -9 -13 3 -6 13 7 13 6
2 -7 -7 -9 -15 -29 -18 -45 -2 -15 -7 -35 -11 -43 -3 -8 -7 -22 -9 -30 -12
-60 -29 -116 -37 -121 -6 -4 -7 -14 -4 -23 4 -9 3 -16 -2 -16 -4 0 -8 -6 -9
-12 -8 -59 -15 -88 -22 -88 -5 0 -7 -11 -5 -25 1 -14 -2 -25 -6 -25 -5 0 -8
-3 -7 -7 1 -5 -1 -28 -5 -53 -5 -25 -8 -47 -9 -50 0 -3 -4 -13 -10 -24 -5 -10
-12 -39 -14 -64 -2 -25 -8 -50 -13 -55 -5 -5 -7 -16 -4 -23 3 -8 1 -14 -4 -14
-6 0 -9 -13 -8 -30 1 -16 -1 -30 -5 -30 -4 0 -7 -17 -8 -37 -1 -20 -5 -39 -10
-42 -5 -3 -8 -16 -7 -28 1 -13 -3 -23 -9 -23 -6 0 -4 -5 4 -10 8 -5 10 -10 4
-10 -10 0 -30 -108 -25 -137 1 -7 -2 -13 -6 -13 -5 0 -9 -15 -8 -32 0 -18 -3
-35 -6 -38 -6 -5 -21 -99 -20 -133 0 -11 -5 -15 -12 -10 -7 4 -5 -2 3 -12 8
-11 10 -16 3 -11 -9 5 -12 -1 -9 -24 2 -17 0 -33 -5 -35 -4 -3 -7 -13 -7 -23
1 -24 -10 -130 -18 -172 -3 -19 -7 -48 -9 -65 -1 -16 -5 -50 -9 -75 -3 -25 -7
-56 -9 -70 -1 -14 -6 -31 -10 -37 -5 -8 -3 -13 3 -13 6 0 8 -4 5 -10 -13 -21
-16 -52 -32 -335 -3 -55 -10 -103 -15 -106 -7 -4 -6 -9 1 -13 6 -4 11 -12 11
-17 0 -6 -5 -7 -10 -4 -13 8 -8 -18 5 -27 7 -5 7 -8 0 -8 -6 0 -10 -40 -10
-100 0 -60 -4 -100 -10 -100 -6 0 -3 -5 5 -10 11 -7 11 -10 2 -10 -10 0 -10
-5 -1 -21 8 -16 8 -20 -1 -14 -9 6 -9 2 -1 -14 7 -11 8 -21 3 -21 -5 0 -8
-132 -8 -294 0 -162 3 -293 6 -291 4 2 4 -16 0 -40 -4 -24 -3 -42 2 -39 4 3 8
0 8 -5 0 -6 -5 -11 -11 -11 -8 0 -7 -5 2 -16 10 -13 10 -17 -2 -25 -8 -5 -10
-9 -4 -9 6 0 10 -26 9 -58 0 -31 4 -65 9 -76 7 -14 6 -16 -4 -11 -8 5 -10 4
-5 -3 4 -7 9 -42 12 -79 2 -38 7 -93 9 -123 3 -30 8 -93 10 -140 7 -104 13
-175 15 -175 1 0 3 -11 4 -25 2 -14 7 -52 11 -85 5 -33 9 -67 9 -75 1 -8 5
-21 10 -29 7 -10 6 -12 -4 -6 -9 5 -11 4 -6 -4 10 -15 14 -46 31 -197 3 -28 8
-61 11 -75 9 -37 14 -69 21 -126 3 -29 9 -53 14 -53 4 0 6 -8 4 -17 -1 -10 2
-28 6 -40 6 -16 5 -23 -4 -23 -9 0 -9 -2 0 -8 13 -8 21 -46 22 -105 1 -21 5
-36 9 -33 5 3 8 -9 7 -27 -1 -18 1 -37 6 -42 4 -6 11 -33 15 -60 3 -28 9 -52
13 -55 3 -3 7 -9 8 -15 1 -5 4 -28 7 -51 4 -22 10 -55 15 -72 5 -17 7 -33 3
-36 -3 -3 0 -6 7 -6 6 0 11 -6 10 -12 -1 -7 2 -31 6 -53 5 -22 8 -43 7 -47 -1
-5 4 -8 11 -8 8 0 7 -4 -3 -10 -12 -7 -12 -10 -1 -10 7 0 11 -6 8 -15 -4 -8
-2 -17 2 -19 5 -3 12 -25 16 -48 8 -41 9 -48 15 -65 1 -5 2 -12 1 -17 -1 -5 3
-12 8 -16 6 -3 12 -18 13 -33 1 -15 6 -27 10 -27 4 0 5 -9 3 -20 -2 -11 1 -20
7 -20 6 0 9 -3 6 -6 -4 -3 -2 -20 4 -37 5 -18 12 -45 15 -62 3 -16 9 -33 15
-36 5 -3 9 -8 8 -10 -4 -11 14 -89 20 -89 4 0 7 -6 7 -13 -2 -16 25 -100 34
-107 3 -3 9 -18 13 -35 3 -16 9 -41 12 -55 3 -13 8 -27 12 -30 4 -3 8 -14 10
-25 1 -11 7 -29 11 -40 13 -28 23 -57 28 -75 6 -25 9 -34 30 -87 3 -10 7 -21
8 -25 2 -5 4 -10 5 -13 1 -3 3 -8 4 -12 1 -5 10 -25 19 -47 9 -21 17 -42 17
-45 0 -4 9 -26 20 -49 11 -22 20 -48 20 -56 0 -8 4 -17 9 -20 5 -3 12 -17 15
-30 3 -14 11 -38 18 -53 6 -15 12 -30 13 -33 1 -3 7 -18 14 -35 8 -16 18 -41
23 -55 6 -14 14 -33 19 -42 5 -10 9 -25 9 -33 0 -10 5 -13 12 -9 8 5 9 2 5
-10 -4 -10 -1 -19 7 -22 8 -3 12 -14 9 -25 -3 -10 -1 -19 5 -19 10 0 22 -26
28 -58 1 -8 10 -22 18 -31 9 -10 16 -22 16 -27 0 -15 93 -219 102 -222 4 -2 6
-8 2 -13 -3 -5 0 -9 5 -9 6 0 11 -9 11 -20 0 -11 5 -20 10 -20 6 0 10 -9 10
-20 0 -11 6 -23 14 -26 8 -3 12 -12 9 -20 -3 -8 -1 -14 5 -14 5 0 12 -9 15
-20 7 -28 10 -33 19 -45 5 -5 32 -57 61 -115 66 -129 79 -153 92 -162 6 -4 6
-8 2 -8 -5 0 -1 -7 7 -16 9 -8 16 -22 16 -30 0 -8 4 -14 8 -14 5 0 14 -16 22
-35 8 -19 17 -35 21 -35 8 0 24 -40 21 -52 -1 -5 3 -8 8 -8 6 0 16 -12 23 -27
11 -27 48 -87 65 -108 4 -5 9 -14 10 -20 2 -16 46 -84 55 -85 4 0 7 -5 7 -11
0 -6 13 -30 30 -54 16 -24 30 -52 31 -62 0 -11 2 -13 6 -5 6 15 33 -30 33 -54
0 -8 4 -13 9 -11 5 1 10 -2 12 -8 1 -5 9 -16 16 -23 7 -8 11 -17 9 -21 -3 -4
4 -13 14 -21 10 -8 17 -17 14 -22 -3 -4 -1 -8 5 -8 5 0 13 -9 16 -21 4 -11 20
-33 35 -50 16 -16 27 -29 24 -29 -8 0 29 -54 43 -63 7 -4 13 -15 13 -22 0 -8
4 -15 10 -15 5 0 17 -15 26 -32 9 -18 22 -36 28 -40 6 -4 11 -13 11 -20 1 -7
7 -12 14 -10 7 1 10 -2 7 -6 -3 -5 3 -20 14 -33 11 -13 23 -28 28 -34 4 -5 11
-18 15 -28 3 -9 11 -17 16 -17 5 0 13 -9 16 -20 4 -11 19 -32 33 -45 15 -14
23 -25 19 -25 -4 0 6 -13 23 -30 16 -16 30 -32 30 -35 0 -6 27 -40 58 -72 12
-13 22 -28 22 -33 0 -6 5 -10 10 -10 6 0 10 -5 10 -11 0 -6 13 -23 30 -39 16
-15 27 -30 23 -33 -3 -4 2 -9 11 -13 9 -3 16 -10 16 -16 0 -5 10 -19 22 -32
13 -13 39 -42 58 -66 39 -48 98 -115 148 -167 18 -19 29 -39 26 -46 -4 -7 -4
-9 1 -5 10 9 37 -11 30 -22 -3 -5 4 -11 15 -15 11 -3 20 -11 20 -16 0 -6 32
-42 70 -80 39 -38 70 -70 70 -72 0 -2 54 -59 120 -127 66 -68 120 -128 120
-133 0 -6 3 -8 6 -5 7 8 51 -35 47 -44 -2 -5 1 -8 8 -8 7 0 30 -18 50 -40 21
-22 42 -40 48 -40 5 0 13 -9 16 -20 3 -11 13 -20 21 -20 8 0 19 -10 24 -22 5
-13 9 -20 9 -16 1 5 28 -18 60 -50 32 -31 76 -71 97 -89 22 -17 57 -48 79 -68
92 -85 105 -95 115 -95 6 0 9 -4 5 -9 -3 -5 3 -12 12 -15 10 -4 39 -25 64 -49
52 -47 67 -60 124 -102 22 -16 53 -42 69 -57 17 -16 35 -28 40 -28 6 0 17 -9
24 -20 7 -11 17 -20 24 -20 6 0 24 -13 40 -30 15 -16 32 -30 36 -30 7 0 47
-31 88 -70 12 -11 27 -20 33 -20 6 0 11 -4 11 -10 0 -5 4 -10 10 -10 13 0 100
-62 100 -72 0 -4 6 -8 14 -8 7 0 25 -11 40 -25 15 -14 34 -25 42 -25 8 0 13
-4 9 -9 -3 -5 3 -12 14 -16 16 -5 32 -16 78 -55 7 -6 13 -8 13 -5 0 4 6 0 14
-7 7 -7 22 -19 32 -25 11 -7 36 -24 57 -38 21 -14 42 -25 48 -25 5 0 12 -7 15
-15 4 -8 10 -13 14 -10 4 3 13 -2 20 -10 7 -8 18 -15 26 -15 7 0 17 -6 21 -12
9 -15 59 -46 86 -55 9 -3 17 -9 17 -13 0 -4 14 -13 30 -20 17 -7 30 -16 30
-20 0 -4 14 -13 30 -20 17 -7 30 -16 30 -21 0 -5 3 -8 8 -7 6 3 32 -10 107
-55 17 -10 38 -21 48 -24 9 -3 17 -10 17 -15 0 -5 5 -6 10 -3 6 3 10 2 10 -3
0 -6 12 -15 28 -21 37 -16 86 -44 94 -56 4 -5 8 -6 8 -2 0 5 7 1 16 -7 8 -9
22 -16 30 -16 8 0 14 -4 14 -8 0 -4 33 -23 73 -42 39 -18 78 -40 85 -47 7 -7
19 -13 27 -13 16 0 79 -32 83 -43 2 -4 8 -5 13 -1 5 3 9 0 9 -6 0 -6 4 -8 10
-5 5 3 10 3 10 -2 0 -4 25 -19 55 -33 30 -14 55 -28 55 -32 0 -4 7 -5 15 -2 8
4 15 2 15 -4 0 -5 11 -13 25 -16 14 -4 25 -11 25 -17 0 -6 5 -7 10 -4 6 4 17
1 25 -5 8 -7 15 -9 15 -4 0 5 4 5 8 -1 9 -13 99 -55 117 -55 8 0 15 -4 15 -10
0 -5 6 -10 14 -10 7 0 34 -11 60 -25 25 -13 46 -21 46 -18 0 4 5 2 12 -5 7 -7
20 -12 31 -12 10 0 16 -4 13 -9 -3 -5 10 -12 29 -15 19 -4 35 -12 35 -18 0 -5
6 -8 13 -5 7 3 21 -1 31 -9 11 -7 23 -11 27 -8 5 3 9 1 9 -4 0 -5 6 -9 13 -9
15 -1 80 -26 87 -33 3 -3 25 -12 50 -20 25 -8 55 -20 68 -28 12 -8 22 -11 22
-8 0 4 10 0 21 -8 12 -8 28 -12 35 -9 8 3 14 1 14 -5 0 -5 12 -13 28 -17 15
-3 41 -12 57 -19 42 -19 119 -41 128 -38 4 1 7 -2 7 -6 0 -5 6 -9 13 -10 28
-1 60 -12 75 -24 8 -7 17 -12 19 -10 1 1 4 2 6 1 6 -2 34 -9 52 -13 11 -2 22
-5 25 -6 3 -1 8 -2 13 -1 4 0 7 -4 7 -9 0 -5 3 -9 8 -8 4 0 14 -1 22 -5 46
-17 152 -47 170 -47 11 0 20 -4 20 -9 0 -6 9 -8 20 -6 11 2 20 0 20 -5 0 -5 9
-7 19 -5 11 2 25 -3 31 -10 6 -8 18 -11 26 -8 8 3 14 1 14 -3 0 -9 10 -11 70
-17 14 -1 28 -5 31 -9 3 -5 17 -9 32 -10 15 -1 27 -7 27 -12 0 -5 3 -7 6 -3 3
3 18 1 33 -5 14 -5 37 -12 51 -14 14 -3 32 -7 40 -11 8 -3 26 -7 40 -9 14 -2
32 -6 40 -8 8 -2 34 -7 58 -11 23 -4 45 -12 48 -16 3 -5 17 -9 30 -9 14 0 60
-9 102 -19 43 -11 93 -22 112 -26 49 -8 53 -9 69 -19 10 -6 12 -5 7 2 -4 7 -2
12 3 12 6 0 11 -4 11 -8 0 -5 6 -9 13 -9 27 -1 113 -15 132 -21 11 -3 28 -7
38 -8 9 -1 18 -2 20 -4 2 -2 20 -5 97 -15 30 -4 60 -8 65 -9 6 -1 16 -5 23 -9
6 -5 12 -6 12 -2 0 3 9 1 20 -5 14 -8 20 -8 20 0 0 6 5 8 13 3 6 -4 19 -8 27
-10 55 -7 120 -14 153 -16 20 -1 37 -4 37 -7 0 -3 10 -6 23 -6 20 -1 64 -5
192 -21 28 -3 65 -6 82 -6 22 1 30 -3 26 -11 -4 -6 1 -5 10 3 13 10 17 10 17
1 0 -10 3 -10 14 -1 8 7 17 8 20 3 3 -5 25 -10 48 -10 24 -1 68 -4 98 -6 89
-8 231 -18 285 -20 28 0 53 -5 57 -11 5 -6 8 -6 8 2 0 12 24 12 36 0 4 -3 15
-2 25 4 13 7 19 6 19 -1 0 -8 6 -8 20 0 11 6 20 7 20 3 0 -4 11 -8 25 -8 14 0
25 4 25 9 0 5 8 2 17 -5 15 -12 16 -12 8 1 -7 12 -6 13 6 4 20 -15 61 -16 52
-1 -5 9 -3 9 8 1 17 -14 368 -16 386 -2 7 6 20 5 33 -2 11 -6 26 -8 33 -3 18
11 47 11 47 0 0 -5 7 -4 15 3 10 8 15 9 15 1 0 -7 8 -8 25 -1 18 7 25 6 25 -3
0 -7 3 -8 8 -2 9 13 55 14 64 0 5 -7 8 -7 8 0 0 7 25 11 60 10 34 0 60 4 60
10 0 6 5 3 10 -5 6 -10 10 -11 10 -2 0 6 5 12 11 12 5 0 7 -5 3 -12 -5 -7 -3
-8 6 -3 7 5 30 10 49 11 120 10 228 17 244 16 9 0 17 5 17 11 0 8 3 8 8 2 9
-13 32 -18 32 -7 0 5 7 9 15 9 8 0 15 -5 15 -11 0 -6 4 -5 9 2 4 7 12 12 17
11 8 -3 158 12 177 17 4 1 28 2 53 3 30 1 43 5 38 12 -5 8 -1 8 13 0 14 -7 23
-7 31 1 7 7 12 9 12 6 0 -3 16 -2 35 2 24 5 35 4 35 -4 0 -8 2 -8 8 1 4 6 33
13 65 14 31 1 57 6 57 10 0 4 8 6 18 5 9 -2 20 2 24 8 5 8 8 7 8 -2 0 -8 5
-10 13 -5 6 4 19 8 27 10 8 1 35 5 60 9 25 4 53 7 63 8 9 0 17 3 17 6 0 3 10
7 23 8 12 0 36 3 52 6 17 3 46 8 65 11 47 7 75 13 75 15 0 1 11 3 25 5 53 5
146 28 159 39 12 8 13 8 7 -1 -4 -7 -2 -13 3 -13 6 0 11 5 11 10 0 6 6 10 13
9 19 -4 80 12 96 25 12 9 13 8 7 -2 -6 -10 -1 -10 22 2 16 8 32 13 34 11 3 -3
18 -1 34 4 26 9 66 17 114 25 9 1 20 5 25 8 9 5 69 20 80 19 2 0 20 6 40 15
19 8 37 14 40 14 21 -3 75 14 75 24 0 6 5 4 10 -4 6 -10 10 -11 10 -2 0 6 8
12 18 12 10 0 22 3 25 7 6 5 48 13 84 16 7 0 10 4 8 8 -3 4 17 10 45 14 27 4
50 11 50 17 0 5 5 6 10 3 6 -4 16 -2 23 3 7 6 29 13 49 17 23 4 35 11 31 18
-3 5 -2 7 3 4 6 -3 57 10 114 30 58 19 111 35 118 36 6 0 12 4 12 8 0 4 18 10
40 14 22 4 42 11 46 16 3 5 9 7 14 4 5 -3 11 -1 15 5 3 5 14 10 23 10 9 0 29
6 44 14 14 8 43 19 63 26 20 7 49 18 63 26 15 8 34 14 43 14 9 0 19 3 23 7 4
5 11 8 14 9 4 1 23 7 42 15 19 7 38 12 43 11 4 -1 7 2 7 8 0 5 16 12 35 16 19
3 39 12 46 20 6 8 15 12 19 9 4 -3 33 8 64 25 31 16 57 29 59 29 1 0 16 5 32
12 17 7 32 13 35 14 3 1 26 12 52 24 26 12 50 20 52 19 2 -2 13 6 25 16 12 11
21 16 21 11 0 -4 11 0 25 9 13 9 31 16 40 16 8 0 15 5 15 10 0 6 9 10 19 10
11 0 23 5 26 10 4 6 11 8 16 5 5 -4 9 -2 9 2 0 10 130 73 149 73 7 0 10 4 7 9
-3 5 6 12 21 16 15 3 41 16 57 28 17 12 31 21 31 19 0 -5 39 10 45 17 3 3 32
19 65 36 33 16 63 34 66 38 3 5 8 8 10 7 7 -3 59 23 59 30 0 7 30 18 47 18 3
0 10 7 15 16 5 9 14 16 20 16 6 0 20 8 31 17 15 13 18 14 12 3 -4 -8 3 -5 17
8 13 12 30 22 36 22 7 0 12 4 12 10 0 5 3 9 8 8 7 -2 53 21 62 31 3 3 31 20
62 36 32 17 58 33 58 38 0 4 6 7 13 7 7 0 22 8 33 19 11 10 30 22 42 25 12 4
22 12 22 17 0 5 7 9 15 9 8 0 15 5 15 11 0 5 4 8 9 4 5 -3 17 5 26 17 8 13 17
22 20 21 12 -4 44 10 39 18 -3 5 2 9 10 9 9 0 24 8 34 17 10 10 25 19 33 21 8
2 16 8 17 13 2 5 8 7 13 3 5 -3 12 2 15 10 3 9 12 16 20 16 8 0 14 3 14 8 0 9
62 46 73 44 4 -1 7 2 7 7 0 4 19 21 43 37 23 16 51 37 61 46 11 10 26 18 33
18 7 0 13 4 13 9 0 9 58 48 93 63 9 4 20 14 23 23 4 8 10 15 16 15 5 0 21 11
36 25 15 14 31 25 36 25 5 0 17 10 27 22 11 11 19 18 19 15 0 -4 15 8 34 26
48 45 64 57 75 57 5 0 11 3 13 8 2 4 26 25 53 47 28 21 53 44 57 50 5 6 8 6 8
0 0 -6 3 -5 8 1 4 6 33 32 65 58 77 62 97 83 89 92 -4 4 -1 4 6 0 8 -5 25 5
46 26 18 18 51 48 72 66 88 74 128 110 191 170 37 34 70 62 75 62 5 0 7 3 5 8
-5 8 12 26 28 31 6 2 9 7 8 12 -2 5 1 9 7 9 5 0 43 33 85 74 41 41 75 71 75
68 0 -4 8 5 18 21 10 15 22 24 25 20 4 -3 7 -2 7 4 0 13 93 108 103 105 4 -1
7 4 7 11 0 7 20 32 45 55 25 23 45 46 45 52 0 6 5 8 10 5 6 -3 13 1 16 10 4 9
32 43 63 74 31 32 74 80 96 106 22 26 48 55 58 64 9 8 17 21 17 29 0 7 3 11 8
9 4 -3 13 1 20 9 7 8 9 14 5 14 -4 0 10 16 30 35 20 19 37 38 37 41 0 4 16 22
36 40 19 19 33 34 30 34 -3 0 6 12 19 26 14 15 25 31 25 35 0 5 7 9 15 9 8 0
14 4 12 9 -3 11 64 101 75 101 5 0 6 5 3 10 -3 6 -1 10 5 10 6 0 14 8 17 17 4
9 14 24 22 33 9 9 30 33 46 54 17 21 42 52 58 69 15 17 27 37 27 44 0 7 5 13
10 13 6 0 14 8 17 17 7 19 17 32 46 64 9 10 17 23 17 29 0 6 5 10 10 10 6 0
10 6 10 14 0 8 7 17 16 20 8 3 13 10 10 15 -3 5 5 20 19 32 13 13 25 29 25 36
0 7 6 16 14 20 7 4 21 23 30 41 9 17 20 32 24 32 4 0 16 17 27 38 11 20 25 41
32 45 7 4 13 12 13 18 0 5 16 32 35 59 19 27 35 54 35 60 0 5 4 10 8 10 5 0
17 18 27 40 10 22 21 40 25 40 4 0 13 13 20 30 7 17 16 30 20 30 5 0 13 13 19
30 5 16 15 30 20 30 6 0 11 7 11 15 0 7 8 19 18 24 9 6 14 11 9 11 -10 0 21
60 46 88 11 12 17 22 12 22 -4 0 0 9 10 20 10 11 15 20 11 20 -4 0 0 7 8 16 9
8 16 21 16 28 0 7 9 23 20 36 11 12 17 27 14 31 -3 5 -1 9 5 9 5 0 16 12 24
28 34 65 71 128 86 146 13 16 13 18 1 11 -12 -7 -12 -5 1 11 9 10 29 46 46 79
16 33 36 71 43 85 8 14 15 27 15 30 4 17 40 80 47 80 4 0 5 7 2 15 -4 8 -2 15
4 15 6 0 13 14 17 30 4 18 11 27 17 24 7 -5 9 0 6 14 -4 12 -3 20 2 17 9 -5
23 32 20 54 -1 7 3 10 9 6 6 -3 11 -2 11 4 0 5 5 22 12 38 6 15 12 30 13 33 0
3 15 33 33 68 17 34 32 64 32 67 0 3 10 24 20 47 11 24 20 49 20 56 0 6 5 12
10 12 6 0 10 8 10 18 0 9 9 31 19 48 10 17 22 46 26 65 4 19 12 37 18 41 6 3
11 14 12 25 1 10 7 29 12 43 60 144 80 200 75 204 -3 3 0 6 7 6 7 0 9 5 6 10
-3 6 -1 10 4 10 6 0 10 3 9 8 0 4 2 15 5 25 4 9 10 25 14 35 9 23 9 23 18 57
4 17 12 36 18 43 5 6 6 12 3 12 -4 0 -1 10 6 23 7 12 14 33 16 47 2 13 7 30
13 36 5 6 6 14 2 18 -4 4 -2 10 4 14 7 4 14 20 17 36 3 16 9 32 13 35 4 3 8
11 8 16 0 6 9 37 20 70 10 33 19 63 21 68 1 4 3 9 4 12 1 3 4 10 5 15 1 6 3
11 4 13 2 1 4 13 7 26 2 14 10 31 17 40 10 12 9 13 -3 6 -13 -8 -13 -7 -1 8 7
9 10 17 6 17 -4 0 -3 6 3 13 5 6 13 28 18 47 11 49 11 49 14 55 4 9 7 19 15
62 4 24 11 40 15 38 5 -3 7 3 6 12 -2 10 4 38 12 63 8 25 17 52 20 60 3 8 7
24 9 35 14 80 26 125 34 130 5 4 9 12 9 18 0 7 -4 6 -11 -3 -9 -12 -9 -11 -4
5 10 28 27 97 28 113 0 6 4 12 7 12 4 0 6 14 5 30 -1 17 1 30 5 30 4 0 11 21
15 48 5 26 10 54 12 62 2 8 5 29 7 45 2 17 5 31 6 33 3 3 5 9 15 67 4 28 9 55
11 60 1 6 5 28 9 50 4 22 10 56 14 75 4 20 7 43 5 53 -1 9 1 17 4 17 4 0 8 10
9 23 0 12 4 36 7 52 3 17 8 55 12 85 7 57 11 85 14 85 1 0 3 20 5 45 2 25 6
58 9 74 3 15 8 65 12 110 3 44 11 87 18 95 9 12 8 13 -3 6 -11 -6 -12 -5 -5 6
5 8 9 25 10 39 1 14 5 59 8 100 3 41 8 113 12 160 8 130 11 150 17 157 4 3 2
13 -3 23 -5 10 -6 20 -2 24 7 8 9 30 13 202 1 61 -1 116 -6 124 -5 8 -4 11 3
6 8 -4 10 99 8 366 -2 205 -5 375 -6 378 -1 3 -2 32 -2 65 0 33 -5 66 -11 74
-10 12 -9 13 3 6 13 -8 13 -7 1 8 -11 14 -11 17 0 17 10 0 10 3 1 12 -16 16
-15 31 1 22 9 -6 9 -5 0 7 -6 8 -10 31 -9 52 1 20 -1 37 -5 37 -3 0 -6 7 -6
15 0 8 5 15 11 15 7 0 7 3 1 8 -5 4 -11 23 -11 42 -1 19 -5 69 -10 110 -4 41
-8 87 -8 103 -1 15 -5 27 -10 27 -5 0 -3 7 4 15 7 8 8 15 3 15 -5 0 -10 6 -10
13 -1 43 -16 188 -23 221 -5 21 -7 47 -5 57 2 10 0 21 -4 23 -4 3 -8 21 -9 42
-2 20 -5 41 -9 47 -3 5 -7 32 -9 60 -3 29 -6 64 -7 80 -1 15 -5 27 -9 27 -5 0
-7 3 -6 8 1 5 -9 90 -16 132 -1 3 -5 11 -10 19 -7 11 -6 12 5 6 11 -7 12 -6 3
6 -6 8 -11 27 -10 42 1 16 -2 31 -6 33 -4 3 -8 19 -8 35 0 17 -3 28 -7 26 -5
-3 -8 9 -8 26 1 18 -4 35 -10 39 -6 5 -4 8 5 8 10 0 11 3 3 8 -6 4 -14 27 -18
52 -9 56 -10 60 -18 85 -3 11 -8 31 -11 45 -3 14 -8 36 -11 50 -4 14 -7 33 -7
43 1 9 -3 15 -7 13 -4 -3 -8 10 -9 27 -1 30 -8 69 -12 75 -2 1 -4 7 -5 12 -1
6 -4 13 -5 18 -1 4 -2 15 -1 25 1 9 -3 17 -9 17 -7 0 -10 6 -7 13 2 6 -2 29
-9 51 -8 21 -11 42 -8 47 3 5 0 9 -6 9 -6 0 -10 6 -9 13 1 6 0 19 -3 27 -15
41 -32 107 -31 123 0 9 -4 17 -8 17 -5 0 -9 9 -9 20 0 12 -7 35 -16 52 -9 18
-11 27 -4 23 8 -5 8 0 -1 16 -7 13 -14 29 -15 34 -1 6 -12 41 -25 80 -12 38
-22 76 -22 82 0 7 -5 13 -10 13 -5 0 -7 9 -4 20 3 11 2 20 -3 20 -4 0 -10 10
-13 23 -10 40 -56 172 -67 190 -6 10 -8 22 -5 27 3 5 1 11 -5 15 -5 3 -10 15
-10 26 0 10 -5 19 -11 19 -5 0 -8 4 -5 8 3 5 -1 20 -9 35 -8 15 -11 27 -8 27
3 0 -2 11 -11 25 -9 13 -16 33 -16 44 0 11 -6 26 -13 33 -8 7 -12 18 -10 25 2
6 -1 14 -6 18 -6 3 -11 13 -11 20 0 8 -11 38 -23 67 -13 29 -30 69 -37 88 -16
42 -47 114 -66 154 -7 16 -11 33 -7 39 3 5 1 7 -5 3 -6 -3 -13 7 -17 26 -4 17
-16 45 -26 62 -10 17 -19 39 -19 49 0 9 -4 17 -10 17 -5 0 -10 7 -10 15 0 8
-4 15 -8 15 -5 0 -9 6 -9 13 0 6 -15 44 -33 82 -19 39 -33 73 -32 78 1 4 -2 7
-6 7 -5 0 -15 18 -22 40 -7 22 -17 40 -22 40 -4 0 -8 9 -8 19 0 11 -4 21 -8
23 -9 3 -52 92 -52 107 0 5 -3 11 -8 13 -4 2 -21 31 -38 65 -18 34 -35 59 -39
55 -5 -4 -5 -1 0 7 4 7 3 16 -2 20 -5 3 -24 35 -43 71 -41 81 -54 104 -60 110
-9 9 -41 65 -58 103 -9 20 -20 37 -24 37 -5 0 -8 7 -8 15 0 8 -5 15 -11 15 -5
0 -7 5 -4 10 3 6 1 10 -5 10 -6 0 -9 4 -6 9 3 4 -3 16 -14 26 -11 10 -20 24
-20 32 0 7 -4 13 -10 13 -5 0 -10 4 -10 10 0 5 -18 38 -40 72 -22 35 -40 69
-40 76 0 6 -5 12 -10 12 -6 0 -16 12 -23 28 -6 15 -20 36 -29 46 -10 11 -18
24 -18 28 0 5 -5 14 -10 21 -20 23 -80 112 -87 127 -4 8 -15 22 -25 31 -10 9
-18 21 -18 26 0 6 -8 19 -17 31 -10 11 -24 28 -31 39 -41 61 -113 162 -131
185 -12 14 -21 31 -21 36 0 5 -7 13 -16 16 -8 3 -12 10 -9 16 3 5 -1 10 -10
10 -9 0 -13 5 -10 10 3 6 1 10 -4 10 -6 0 -11 4 -11 10 0 5 -11 20 -25 34 -14
14 -25 32 -25 41 0 9 -5 13 -10 10 -6 -3 -13 2 -17 12 -7 19 -12 26 -67 86
-19 21 -35 40 -35 43 1 3 -8 17 -20 30 -12 13 -21 29 -21 34 0 5 -9 15 -20 22
-11 7 -20 16 -20 21 0 4 -10 18 -22 31 -13 12 -39 42 -58 66 -19 23 -45 52
-57 63 -12 11 -20 24 -17 29 3 4 -3 8 -12 8 -10 0 -15 2 -12 5 5 6 -22 39 -96
118 -21 23 -47 56 -57 72 -11 17 -19 27 -19 23 0 -11 -35 25 -55 56 -10 14
-21 23 -26 20 -5 -3 -9 -1 -9 4 0 5 -27 37 -60 71 -33 34 -60 67 -60 73 0 6
-3 8 -6 5 -8 -7 -44 31 -44 45 0 5 -4 6 -10 3 -5 -3 -10 -2 -10 3 0 10 -136
152 -141 147 -2 -2 -15 12 -29 31 -14 18 -29 34 -34 34 -4 0 -32 25 -61 55
-30 30 -58 55 -64 55 -5 0 -13 9 -16 20 -3 11 -10 20 -15 20 -5 0 -34 25 -66
55 -62 61 -58 61 -120 -2 -17 -18 -29 -34 -27 -37 2 -2 -5 -7 -16 -11 -12 -3
-21 -13 -21 -21 0 -8 -6 -14 -14 -14 -8 0 -18 -9 -21 -20 -3 -11 -13 -20 -21
-20 -8 0 -14 -4 -14 -8 0 -12 -88 -102 -100 -102 -5 0 -10 -5 -10 -11 0 -5
-47 -57 -104 -114 -57 -57 -102 -106 -98 -109 3 -3 0 -6 -6 -6 -10 0 -92 -76
-92 -85 0 -9 -60 -62 -65 -57 -3 3 -5 0 -5 -6 0 -15 -162 -178 -173 -174 -5 1
-6 -2 -2 -7 3 -6 -6 -18 -20 -27 -13 -9 -22 -20 -19 -25 3 -5 0 -9 -5 -9 -14
0 -91 -79 -91 -93 0 -6 -3 -8 -6 -4 -3 3 -17 -6 -31 -21 -76 -84 -145 -152
-153 -152 -6 0 -10 -5 -10 -10 0 -13 -62 -76 -72 -72 -5 1 -8 -3 -8 -9 0 -6
-40 -51 -89 -100 -48 -49 -86 -89 -82 -89 3 -1 -5 -7 -19 -15 -14 -8 -20 -14
-15 -15 6 0 -3 -9 -20 -20 -16 -11 -27 -20 -22 -20 4 0 -20 -26 -52 -57 -33
-31 -58 -61 -55 -65 3 -5 1 -7 -4 -6 -10 3 -252 -242 -252 -255 0 -5 -4 -6 -8
-3 -5 3 -15 -6 -22 -19 -7 -13 -16 -22 -20 -20 -4 2 -12 -7 -19 -21 -6 -14
-16 -22 -21 -19 -6 3 -10 2 -10 -4 0 -5 -54 -64 -120 -131 -66 -66 -120 -125
-120 -131 0 -6 -4 -7 -10 -4 -5 3 -15 -5 -21 -19 -7 -14 -15 -24 -18 -22 -3 2
-12 -2 -19 -10 -7 -8 -10 -14 -6 -14 3 0 -13 -16 -36 -35 -23 -19 -38 -35 -33
-35 4 0 -5 -9 -22 -20 -16 -11 -27 -20 -23 -20 4 0 -3 -11 -16 -25 -13 -14
-29 -25 -36 -25 -7 0 -11 -2 -8 -5 3 -3 -53 -65 -125 -138 -72 -73 -130 -135
-129 -139 1 -5 -2 -8 -7 -8 -5 0 -26 -16 -45 -35 -20 -19 -41 -35 -47 -35 -6
0 -25 -11 -43 -25 -18 -14 -40 -25 -49 -25 -9 0 -19 -5 -22 -10 -4 -6 -11 -8
-16 -5 -5 4 -9 2 -9 -4 0 -8 -75 -27 -92 -23 -5 1 -8 -1 -8 -6 0 -4 -17 -8
-38 -9 -20 -1 -48 -5 -60 -8 -17 -4 -22 -2 -16 6 5 8 3 9 -7 3 -18 -11 -40
-12 -63 -1 -13 6 -16 6 -12 -2 4 -6 2 -11 -3 -11 -6 0 -11 4 -11 8 0 5 -13 7
-30 6 -16 -1 -30 1 -30 5 0 4 -10 7 -22 8 -38 3 -108 25 -108 34 0 5 -8 9 -19
9 -10 0 -35 11 -55 25 -20 14 -39 25 -41 25 -3 0 -14 8 -24 18 -11 9 -40 34
-65 56 -25 21 -43 43 -40 47 3 5 -1 9 -8 9 -8 0 -30 18 -50 39 -20 22 -38 37
-41 35 -3 -3 -8 4 -12 15 -3 12 -10 21 -15 21 -12 0 -60 48 -60 60 0 6 -4 10
-9 10 -14 0 -133 123 -166 172 -17 23 -32 45 -35 48 -3 3 -15 28 -27 55 -34
79 -44 108 -46 138 -1 9 -4 17 -7 17 -10 0 -9 205 2 250 5 25 11 52 12 60 1 8
8 28 14 43 7 16 12 33 12 38 0 5 4 9 10 9 5 0 9 3 8 8 -4 14 14 52 24 52 6 0
9 3 5 6 -13 14 33 67 248 287 85 86 151 157 147 157 -4 1 6 8 21 16 15 8 26
18 23 22 -3 4 8 17 24 27 16 11 34 30 41 42 7 12 16 20 21 17 4 -3 8 -1 8 4 0
12 58 72 70 72 6 0 10 4 10 10 0 5 63 73 140 151 77 78 140 146 140 152 0 6 3
8 6 5 5 -5 54 37 54 47 0 8 51 55 60 55 6 0 10 5 10 11 0 14 52 64 63 61 4 -1
7 2 7 7 0 5 56 66 125 137 69 70 125 132 125 136 0 5 3 7 8 5 4 -3 18 10 32
29 14 18 31 34 38 34 6 0 12 4 12 8 0 15 204 217 215 214 5 -2 7 -1 3 3 -3 4
16 30 43 58 27 28 49 55 49 59 0 5 4 7 9 3 5 -3 12 4 16 15 4 11 9 19 13 17 4
-2 19 10 34 25 15 15 25 28 24 28 -1 0 52 55 118 123 67 67 120 125 118 130
-1 4 2 7 8 7 5 0 26 16 46 35 19 19 34 35 31 35 -3 0 13 18 35 40 22 22 42 40
45 40 2 0 11 7 19 15 9 8 13 15 11 15 -3 0 77 83 177 183 99 101 181 189 181
195 0 14 -91 73 -99 65 -3 -4 -6 -2 -6 4 0 9 -35 30 -54 31 -5 0 -12 4 -15 10
-10 14 -123 84 -115 70 5 -7 -6 -1 -24 14 -17 15 -42 30 -54 34 -12 3 -28 13
-36 20 -7 8 -17 12 -21 10 -4 -3 -13 4 -21 14 -8 10 -18 16 -23 13 -5 -3 -12
-2 -16 3 -3 5 -37 25 -76 44 -38 19 -72 38 -75 42 -3 3 -18 10 -33 13 -15 4
-27 11 -27 15 0 4 -11 11 -24 14 -14 3 -32 13 -40 22 -9 8 -24 17 -33 19 -28
5 -123 52 -118 57 3 3 -1 5 -8 5 -7 0 -41 14 -75 31 -34 18 -62 28 -62 24 0
-4 -4 -2 -8 4 -6 9 -73 44 -85 44 -3 0 -40 16 -81 35 -42 19 -81 35 -86 35 -6
0 -10 4 -10 8 0 5 -22 15 -50 22 -27 7 -50 17 -50 22 0 4 -7 8 -15 8 -8 0 -34
9 -58 19 -70 32 -121 54 -135 57 -8 1 -21 6 -30 10 -9 4 -19 8 -22 9 -3 1 -21
9 -40 17 -19 9 -38 14 -41 12 -4 -2 -12 3 -19 11 -6 7 -17 12 -25 9 -7 -3 -16
-1 -20 5 -3 6 -14 11 -23 11 -9 0 -30 7 -45 15 -15 8 -43 17 -62 21 -19 3 -35
10 -35 15 0 5 -3 8 -7 7 -13 -3 -113 25 -113 33 0 3 -27 12 -60 19 -38 8 -57
17 -53 24 3 6 3 8 -1 4 -7 -6 -83 12 -126 29 -21 8 -30 11 -65 18 -16 3 -34
10 -40 14 -5 4 -17 7 -25 6 -8 0 -17 3 -20 7 -3 3 -17 8 -32 10 -15 2 -30 7
-34 10 -3 4 -12 4 -20 1 -8 -3 -14 -1 -14 4 0 5 -6 10 -12 11 -7 1 -31 5 -53
11 -22 5 -50 12 -62 14 -12 3 -30 10 -40 14 -10 5 -25 9 -33 8 -8 0 -30 5 -47
12 -18 7 -36 13 -40 12 -5 -1 -10 0 -13 1 -10 3 -46 11 -80 17 -19 3 -36 9
-38 13 -2 4 -12 6 -22 3 -12 -3 -20 0 -20 6 0 7 -4 10 -9 7 -5 -4 -21 -2 -35
4 -14 5 -41 10 -61 12 -19 1 -35 5 -35 9 0 4 -8 7 -17 7 -10 -1 -36 2 -58 7
-22 5 -47 9 -55 9 -8 1 -19 4 -25 7 -5 4 -20 5 -32 4 -12 -1 -20 2 -17 7 3 4
-11 9 -30 9 -20 1 -39 2 -43 3 -14 4 -98 20 -108 21 -5 0 -26 4 -45 8 -19 4
-48 9 -65 11 -16 3 -50 8 -75 12 -25 4 -55 8 -67 8 -13 1 -23 3 -23 6 0 3 -15
6 -32 7 -18 0 -53 4 -78 8 -25 3 -57 7 -72 7 -15 0 -26 3 -24 7 2 3 -10 6 -27
7 -89 3 -213 17 -224 26 -7 6 -14 5 -18 -2 -3 -6 -12 -7 -18 -3 -7 4 -21 8
-32 9 -11 1 -56 4 -100 8 -171 14 -235 17 -236 9z m-2319 -7576 c105 -11 155
-20 161 -29 3 -5 9 -9 13 -8 19 5 65 -13 60 -22 -4 -7 -2 -8 4 -4 12 7 113
-43 132 -65 3 -3 31 -27 63 -53 90 -73 97 -79 130 -108 18 -16 37 -28 45 -28
7 0 10 -5 6 -11 -4 -7 -1 -10 7 -7 8 3 19 -1 24 -8 14 -18 171 -102 217 -116
21 -6 38 -15 38 -19 0 -5 18 -12 40 -15 22 -4 40 -10 40 -15 0 -4 9 -6 20 -4
11 2 20 0 20 -5 0 -5 22 -12 50 -16 28 -4 50 -10 50 -14 0 -3 6 -7 13 -7 6 -1
28 -3 47 -6 58 -9 123 -17 165 -20 22 -2 46 -7 54 -11 8 -5 16 -3 21 5 6 9 12
10 22 1 8 -6 19 -7 28 -2 8 5 19 6 25 2 14 -10 55 -10 49 0 -3 4 -1 8 5 8 5 0
12 -6 14 -12 4 -9 8 -9 14 -3 4 6 22 10 38 11 38 1 151 12 190 19 30 6 38 8
150 41 33 10 63 19 68 20 4 1 9 3 12 4 8 4 24 7 41 9 8 0 12 6 9 11 -4 6 -3 9
2 8 18 -5 144 49 151 65 2 4 8 5 13 1 5 -3 9 0 9 5 0 6 6 11 13 11 14 1 146
87 199 131 20 17 39 30 42 30 10 -1 52 44 49 52 -2 4 2 7 9 7 7 0 25 10 38 23
44 38 88 67 105 67 8 0 15 4 15 8 0 9 70 37 83 34 4 -1 7 2 7 7 0 5 24 12 53
16 28 4 61 9 72 12 58 12 1063 2 1220 -12 28 -3 74 -6 103 -7 28 -1 52 -7 52
-12 0 -6 5 -4 10 4 9 13 10 13 10 0 0 -13 1 -13 10 0 5 8 10 10 10 5 0 -6 17
-12 38 -13 20 -2 51 -5 67 -8 64 -11 91 -15 105 -15 8 -1 22 -3 30 -6 8 -3 24
-7 35 -8 41 -3 121 -17 135 -23 8 -3 20 -7 25 -7 6 -1 26 -5 45 -9 19 -4 45
-8 58 -9 12 -1 22 -4 22 -8 0 -4 11 -6 25 -5 13 2 22 0 20 -4 -3 -5 17 -11 45
-15 27 -4 50 -11 50 -17 0 -5 5 -6 10 -3 6 4 18 1 27 -7 14 -11 16 -11 8 1 -6
11 -5 12 6 5 8 -5 17 -9 22 -10 4 -1 8 -2 10 -4 1 -1 15 -4 32 -6 16 -3 34 -9
40 -14 10 -8 20 -11 90 -26 17 -4 39 -14 49 -23 16 -13 18 -13 11 -1 -6 12 -5
13 6 3 7 -7 20 -13 28 -13 9 0 29 -7 45 -15 15 -8 40 -17 53 -20 14 -2 43 -13
64 -24 21 -12 39 -18 39 -16 0 3 13 -1 30 -10 16 -8 32 -16 35 -16 6 0 71 -26
115 -46 19 -9 40 -16 47 -16 7 0 10 -3 8 -7 -2 -4 14 -13 37 -19 23 -7 48 -19
55 -27 8 -8 23 -14 34 -14 10 0 19 -5 19 -10 0 -6 3 -9 8 -8 7 2 63 -23 72
-32 6 -6 84 -43 88 -41 1 1 10 -5 18 -14 9 -8 24 -15 35 -15 11 0 17 -4 14
-10 -3 -5 3 -10 15 -10 11 0 23 -7 26 -15 4 -8 11 -12 16 -9 6 4 13 2 17 -4 3
-6 33 -24 65 -41 32 -17 54 -31 50 -31 -5 -1 6 -7 24 -15 17 -8 32 -19 32 -24
0 -6 7 -8 15 -5 8 4 15 1 15 -5 0 -6 6 -11 14 -11 8 0 17 -7 20 -16 3 -8 10
-13 15 -10 4 3 16 -3 26 -14 10 -11 24 -20 32 -20 7 0 13 -4 13 -10 0 -5 7
-10 15 -10 8 0 15 -4 15 -8 0 -5 12 -15 28 -23 15 -8 32 -18 38 -24 6 -5 22
-17 34 -25 40 -27 156 -115 198 -150 6 -6 12 -8 12 -5 0 3 8 -3 18 -12 11 -10
17 -22 14 -27 -3 -5 -1 -6 5 -3 6 4 23 -7 39 -23 16 -16 32 -30 36 -30 6 0 67
-53 130 -112 16 -16 34 -28 39 -28 5 0 9 -7 9 -17 0 -9 3 -14 6 -10 4 3 20 -9
37 -28 17 -19 37 -35 46 -35 8 0 12 -2 9 -5 -7 -7 85 -101 95 -97 4 2 7 -1 7
-5 0 -13 63 -78 73 -75 4 1 6 -1 3 -6 -3 -5 13 -26 35 -46 22 -20 38 -36 36
-36 -3 0 9 -15 26 -33 18 -19 52 -58 77 -87 25 -30 55 -64 68 -77 12 -13 22
-27 22 -32 0 -4 8 -16 18 -27 44 -49 103 -124 98 -124 -4 0 2 -10 14 -22 39
-44 70 -86 70 -96 0 -6 6 -15 13 -19 7 -4 19 -23 26 -40 7 -18 17 -30 21 -28
5 3 12 -5 16 -17 3 -13 20 -39 35 -59 16 -20 29 -42 29 -47 0 -6 8 -16 18 -21
9 -6 13 -11 8 -11 -5 0 -1 -9 9 -20 10 -11 15 -20 12 -20 -3 0 16 -36 44 -80
27 -44 47 -80 43 -80 -3 0 2 -7 10 -16 9 -8 16 -22 16 -30 0 -8 4 -13 9 -9 6
3 8 -3 6 -14 -2 -11 3 -22 11 -25 8 -3 14 -11 14 -18 0 -19 47 -108 54 -102 3
2 4 1 1 -2 -4 -6 5 -27 56 -126 5 -10 9 -25 9 -33 0 -8 5 -15 10 -15 6 0 10
-6 10 -12 0 -14 41 -120 50 -128 3 -3 6 -9 7 -15 6 -26 30 -84 40 -96 6 -8 14
-33 18 -56 4 -24 10 -43 14 -43 4 0 14 -25 21 -55 7 -30 18 -55 23 -55 6 0 8
-3 4 -6 -3 -4 0 -21 8 -39 7 -19 11 -36 8 -38 -3 -3 8 -12 25 -21 16 -8 32
-12 36 -9 3 4 6 0 6 -7 0 -7 3 -11 6 -8 3 4 20 0 39 -7 18 -8 35 -11 39 -8 3
4 6 2 6 -4 0 -5 6 -10 13 -10 7 0 39 -12 72 -27 32 -16 65 -29 74 -31 8 -1 17
-7 19 -13 2 -7 10 -12 18 -12 8 0 32 -11 54 -25 22 -14 44 -25 50 -25 5 0 10
-4 10 -9 0 -5 10 -13 22 -17 13 -4 28 -14 35 -23 7 -9 13 -12 13 -8 0 8 21 -7
48 -35 9 -10 20 -18 24 -18 8 0 32 -18 81 -63 17 -16 40 -36 52 -45 11 -9 28
-28 38 -42 9 -13 17 -20 17 -15 0 5 8 -2 17 -15 10 -14 17 -28 15 -32 -1 -5 2
-7 6 -5 9 2 92 -89 92 -101 0 -4 11 -20 25 -36 13 -16 22 -32 20 -36 -3 -4 2
-10 10 -13 8 -4 27 -33 43 -67 15 -33 30 -58 33 -55 3 3 12 -14 19 -37 8 -24
20 -52 26 -63 13 -20 14 -24 14 -46 0 -5 4 -8 9 -5 5 4 7 -3 4 -14 -3 -11 0
-20 6 -20 6 0 10 -3 10 -7 -5 -22 15 -92 24 -86 5 3 7 0 5 -8 -3 -8 -1 -24 3
-37 5 -13 12 -47 15 -75 4 -29 11 -58 18 -66 9 -12 8 -13 -3 -6 -11 6 -12 5
-5 -6 5 -8 9 -22 10 -31 1 -10 3 -20 4 -23 6 -13 6 -32 -2 -47 -5 -11 -5 -18
1 -18 9 0 7 -239 -2 -290 -3 -14 -8 -43 -12 -65 -14 -81 -26 -130 -38 -144
-10 -12 -9 -13 3 -6 12 6 13 5 3 -6 -7 -7 -13 -19 -13 -25 0 -7 -5 -25 -12
-41 -6 -15 -12 -30 -13 -33 -20 -70 -32 -97 -45 -107 -8 -7 -12 -13 -7 -13 4
0 -9 -30 -29 -67 -21 -38 -42 -77 -48 -88 -6 -11 -21 -34 -33 -51 -12 -17 -19
-35 -15 -39 4 -5 2 -5 -5 -1 -7 3 -14 -2 -18 -14 -4 -11 -17 -32 -31 -47 -13
-14 -24 -32 -24 -40 0 -8 -5 -11 -10 -8 -6 3 -13 -2 -17 -12 -4 -10 -31 -42
-60 -71 -29 -30 -53 -59 -53 -65 0 -5 -3 -8 -6 -4 -3 3 -26 -14 -50 -39 -24
-24 -48 -44 -52 -44 -5 0 -21 -13 -37 -30 -16 -17 -35 -30 -42 -30 -7 0 -13
-4 -13 -8 0 -4 -15 -16 -32 -27 -18 -10 -35 -21 -38 -24 -6 -7 -41 -28 -87
-52 -18 -9 -29 -20 -25 -23 3 -4 -1 -4 -11 0 -9 3 -17 2 -17 -4 0 -6 -13 -13
-30 -17 -16 -4 -30 -11 -30 -17 0 -6 -7 -8 -15 -4 -8 3 -15 1 -15 -4 0 -6 -7
-10 -15 -10 -9 0 -26 -7 -38 -15 -21 -13 -52 -22 -85 -24 -7 -1 -11 -5 -8 -9
2 -4 -7 -8 -22 -7 -15 0 -33 -5 -40 -12 -8 -7 -17 -11 -22 -8 -7 4 -24 -40
-18 -47 1 -2 -5 -14 -12 -28 -8 -14 -15 -34 -17 -45 -2 -11 -7 -21 -12 -23 -5
-2 -7 -12 -4 -22 3 -11 0 -20 -6 -20 -6 0 -11 -6 -11 -14 0 -8 -5 -27 -12 -43
-6 -15 -12 -30 -13 -33 -1 -3 -5 -13 -8 -22 -4 -10 -10 -26 -14 -35 -3 -10 -7
-20 -8 -23 -8 -23 -39 -90 -51 -112 -8 -16 -13 -28 -10 -28 3 0 -6 -21 -19
-48 -13 -26 -25 -54 -27 -62 -2 -8 -7 -18 -13 -22 -5 -4 -10 -11 -10 -15 -1
-4 -14 -35 -30 -68 -16 -33 -28 -63 -27 -67 1 -5 -3 -8 -9 -8 -5 0 -8 -4 -5
-9 3 -5 0 -14 -7 -20 -7 -5 -24 -34 -38 -63 -13 -29 -26 -55 -29 -58 -10 -10
-41 -66 -51 -92 -6 -16 -15 -28 -19 -28 -4 0 -13 -12 -19 -27 -14 -33 -28 -57
-58 -100 -13 -17 -23 -34 -23 -37 0 -4 -5 -12 -10 -19 -22 -26 -60 -88 -60
-98 0 -6 -5 -7 -11 -3 -7 4 -10 2 -7 -6 2 -7 -9 -26 -24 -42 -15 -17 -28 -35
-28 -42 0 -6 -9 -19 -20 -29 -11 -9 -20 -24 -20 -32 0 -9 -4 -14 -8 -11 -5 3
-15 -7 -23 -22 -8 -14 -21 -34 -29 -43 -8 -9 -24 -29 -35 -44 -11 -16 -28 -38
-37 -49 -51 -60 -58 -70 -58 -78 0 -4 -6 -8 -14 -8 -8 0 -17 -11 -20 -25 -4
-14 -11 -23 -16 -20 -6 3 -10 1 -10 -5 0 -6 -16 -26 -35 -45 -19 -19 -33 -35
-30 -35 2 0 -12 -16 -31 -36 -19 -20 -34 -40 -34 -44 0 -4 -11 -13 -25 -20
-14 -7 -23 -15 -21 -17 2 -2 -23 -30 -55 -62 -32 -32 -55 -61 -51 -65 4 -4 2
-6 -4 -4 -6 2 -40 -25 -75 -59 -128 -122 -145 -138 -153 -138 -4 0 -14 -11
-21 -25 -7 -14 -17 -24 -22 -23 -4 0 -30 -18 -57 -40 -27 -23 -57 -48 -67 -55
-11 -7 -34 -26 -51 -43 -18 -16 -35 -29 -39 -29 -4 0 -24 -16 -45 -35 -22 -19
-43 -35 -47 -35 -4 0 -17 -9 -29 -20 -12 -11 -28 -20 -35 -20 -7 0 -13 -4 -13
-8 0 -4 -15 -16 -32 -27 -18 -10 -38 -24 -45 -29 -6 -6 -34 -24 -62 -41 -28
-16 -51 -33 -51 -37 0 -5 -4 -8 -10 -8 -5 0 -41 -20 -80 -45 -38 -25 -70 -42
-70 -38 0 3 -8 -1 -18 -9 -19 -17 -53 -32 -64 -30 -5 1 -7 -3 -5 -9 1 -6 -6
-13 -16 -14 -10 -2 -27 -11 -38 -21 -10 -9 -19 -13 -19 -9 0 4 -8 1 -17 -7
-23 -20 -115 -63 -129 -60 -7 1 -14 -4 -18 -13 -3 -8 -15 -15 -26 -15 -11 0
-20 -4 -20 -10 0 -5 -3 -9 -7 -9 -15 3 -73 -23 -73 -32 0 -5 -3 -8 -7 -7 -13
4 -83 -26 -83 -34 0 -5 -6 -8 -12 -7 -7 1 -26 -3 -43 -10 -16 -7 -34 -14 -40
-16 -5 -1 -26 -9 -46 -18 -20 -9 -42 -17 -50 -19 -7 -2 -20 -9 -27 -16 -8 -7
-18 -9 -23 -6 -6 3 -20 -2 -31 -13 -14 -12 -19 -13 -13 -3 5 9 0 8 -13 -4 -12
-11 -22 -16 -22 -13 0 3 -31 -5 -70 -19 -38 -13 -75 -24 -81 -24 -6 0 -25 -6
-42 -14 -27 -13 -117 -40 -124 -37 -2 0 -21 -6 -43 -14 -45 -16 -41 -15 -76
-15 -14 0 -22 -4 -19 -10 3 -5 -4 -10 -17 -10 -50 1 -147 -23 -141 -34 4 -6
-2 -4 -12 4 -11 9 -16 10 -11 2 5 -8 -1 -12 -21 -14 -15 0 -32 -2 -38 -3 -5
-2 -23 -3 -38 -4 -19 -1 -26 -5 -21 -13 5 -10 4 -10 -6 -1 -9 8 -19 9 -32 2
-10 -5 -18 -7 -18 -5 0 3 -10 2 -22 -3 -13 -5 -48 -12 -79 -15 -31 -4 -67 -9
-80 -13 -13 -3 -41 -6 -61 -6 -21 -1 -38 -6 -38 -12 0 -5 -5 -3 -10 5 -5 8
-10 10 -10 4 0 -6 -20 -10 -50 -10 -28 1 -50 -1 -50 -4 0 -3 -21 -6 -48 -8
-61 -3 -74 -6 -89 -15 -8 -5 -13 -4 -13 2 0 6 -5 11 -11 11 -5 0 -7 -6 -3 -12
6 -10 5 -10 -8 -1 -8 7 -18 10 -22 6 -12 -12 -36 -12 -36 0 0 8 -3 8 -8 2 -11
-16 -34 -17 -43 -3 -6 8 -9 9 -9 2 0 -8 -29 -12 -85 -13 -48 -1 -102 -4 -122
-7 -26 -4 -33 -2 -28 7 6 8 4 10 -5 4 -7 -4 -60 -7 -119 -6 -58 2 -141 3 -183
4 -43 0 -78 4 -78 7 0 3 -9 6 -20 7 -11 1 -20 -4 -20 -10 0 -9 -2 -9 -8 -1 -4
7 -45 15 -92 18 -125 10 -235 22 -235 26 0 2 -26 6 -85 14 -25 3 -56 8 -70 11
-14 2 -41 7 -60 9 -56 8 -90 15 -168 36 -40 11 -83 20 -97 20 -14 0 -25 4 -25
8 0 5 -14 7 -30 6 -17 -1 -30 2 -30 6 0 5 -25 12 -55 15 -30 4 -55 11 -55 15
0 8 -20 14 -85 26 -16 3 -32 8 -35 12 -5 7 -14 10 -50 15 -11 2 -23 6 -26 10
-4 4 -18 7 -31 7 -13 0 -23 4 -23 8 0 4 -8 8 -17 9 -10 1 -31 7 -48 14 -16 7
-33 12 -37 11 -5 -1 -8 2 -8 8 0 6 -3 9 -7 8 -15 -3 -103 26 -103 34 0 4 -9 8
-20 8 -11 0 -20 5 -20 11 0 5 -5 7 -10 4 -6 -4 -16 -2 -23 3 -13 10 -90 37
-96 33 -2 -2 -7 1 -10 6 -8 11 -114 63 -129 63 -7 0 -12 5 -12 12 0 6 -3 8 -6
5 -4 -3 -16 0 -28 8 -11 8 -29 15 -39 15 -10 0 -15 5 -12 10 3 6 -3 10 -14 10
-11 0 -23 5 -26 10 -3 6 -15 10 -26 10 -11 0 -17 5 -14 10 3 5 -1 10 -10 10
-9 0 -29 8 -43 18 -15 11 -42 25 -59 33 -18 8 -33 17 -33 21 0 5 -9 8 -20 8
-11 0 -20 4 -20 9 0 5 -20 18 -45 30 -25 12 -54 30 -65 41 -11 11 -23 21 -27
21 -19 4 -53 23 -53 30 0 4 -16 13 -34 20 -19 7 -33 16 -30 20 2 4 -12 13 -31
19 -19 6 -33 15 -30 20 3 4 -9 13 -25 20 -17 7 -30 16 -30 21 0 4 -8 10 -17
13 -10 3 -30 17 -45 31 -16 14 -28 22 -28 18 0 -4 -5 0 -11 10 -5 9 -15 17
-22 17 -7 0 -18 9 -25 21 -7 12 -16 18 -19 15 -3 -3 -12 2 -20 10 -8 8 -19 11
-25 8 -6 -4 -8 -2 -5 3 4 6 -8 21 -25 34 -18 13 -47 39 -66 57 -18 17 -37 32
-41 32 -3 0 -23 16 -44 36 -20 20 -37 34 -37 32 0 -3 -34 28 -75 69 -41 40
-75 71 -75 68 0 -2 -10 6 -23 18 -13 12 -22 25 -20 30 2 4 -1 7 -7 7 -13 0
-90 79 -90 92 0 5 -5 6 -10 3 -5 -3 -10 -2 -10 3 0 5 -33 43 -73 84 -39 42
-88 95 -107 119 -19 24 -46 55 -60 70 -14 15 -34 40 -45 55 -11 16 -27 35 -35
44 -8 8 -26 31 -40 50 -13 19 -32 42 -42 51 -10 9 -18 19 -18 23 0 8 -60 88
-73 97 -5 3 -8 9 -8 13 1 3 -3 12 -9 19 -40 47 -50 61 -50 72 0 7 -9 20 -20
30 -11 10 -20 24 -20 32 0 7 -6 16 -14 19 -8 3 -19 19 -25 35 -5 16 -15 29
-20 29 -6 0 -11 6 -11 14 0 7 -7 19 -15 26 -8 7 -12 16 -9 21 3 5 1 9 -5 9 -6
0 -13 11 -17 25 -3 14 -10 25 -15 25 -5 0 -9 7 -9 15 0 9 -6 18 -14 21 -8 3
-12 12 -9 20 3 7 -2 17 -11 20 -9 3 -14 10 -11 14 3 5 1 11 -5 15 -6 3 -19 23
-29 43 -101 200 -126 247 -133 250 -5 2 -6 8 -2 13 3 5 0 9 -5 9 -6 0 -10 3
-9 8 1 8 -12 43 -41 103 -11 23 -18 45 -16 50 3 4 0 9 -7 11 -6 2 -12 11 -13
19 -2 8 -15 42 -31 75 -15 32 -28 64 -30 69 -1 6 -8 24 -15 40 -6 17 -13 35
-14 40 0 6 -5 19 -10 30 -30 72 -62 165 -57 169 3 3 1 6 -5 6 -5 0 -10 6 -11
13 -4 38 -26 117 -32 117 -5 0 -7 11 -5 25 1 14 -1 25 -6 25 -4 0 -11 20 -15
45 -4 29 -10 43 -18 38 -6 -3 -8 -3 -4 1 3 4 2 21 -3 38 -5 17 -11 50 -15 72
-3 23 -11 47 -17 55 -10 12 -9 13 3 6 12 -7 13 -6 3 6 -6 8 -14 30 -17 49 -8
51 -14 79 -22 103 -4 12 -8 33 -10 47 -1 14 -6 44 -9 68 -4 24 -8 49 -9 55 -1
7 -5 18 -9 25 -5 7 -3 12 3 12 8 0 8 6 0 20 -6 11 -7 20 -3 20 4 0 2 5 -5 12
-7 7 -12 24 -12 39 0 22 -5 27 -30 31 -16 3 -30 2 -30 -1 0 -3 -13 -6 -30 -6
-16 0 -30 5 -30 10 0 6 -5 3 -10 -5 -7 -11 -10 -11 -10 -2 0 7 -5 10 -12 6
-14 -9 -103 -9 -117 1 -6 3 -11 1 -11 -6 0 -8 -5 -7 -17 2 -11 10 -14 10 -9 2
9 -16 5 -16 -28 -3 -14 5 -26 6 -26 1 0 -9 -55 -5 -71 4 -5 4 -9 0 -10 -7 0
-10 -2 -10 -6 1 -4 10 -7 10 -13 1 -6 -9 -13 -9 -28 -1 -11 6 -23 7 -26 2 -6
-9 -60 -6 -77 4 -5 4 -9 1 -9 -6 0 -8 -5 -7 -17 2 -11 10 -14 10 -9 2 9 -16 5
-16 -28 -3 -14 5 -26 6 -26 1 0 -9 -55 -5 -71 4 -5 4 -9 0 -10 -7 0 -10 -2
-10 -6 1 -4 10 -7 10 -13 1 -6 -9 -13 -9 -28 -1 -12 7 -23 7 -27 2 -3 -6 -17
-6 -35 -1 -17 5 -30 6 -30 2 0 -4 -13 -7 -30 -7 -16 0 -30 5 -30 10 0 6 -5 3
-10 -5 -7 -11 -10 -11 -10 -2 0 7 -5 10 -11 7 -17 -11 -89 -11 -89 0 0 6 -5 3
-10 -5 -7 -11 -10 -11 -10 -2 0 7 -5 10 -11 7 -17 -11 -89 -11 -89 0 0 6 -5 3
-10 -5 -7 -11 -10 -11 -10 -2 0 7 -5 10 -11 7 -17 -11 -89 -11 -89 0 0 6 -5 3
-10 -5 -7 -11 -10 -11 -10 -2 0 7 -5 10 -11 7 -17 -11 -89 -11 -89 0 0 6 -5 3
-10 -5 -7 -11 -10 -11 -10 -2 0 7 -5 10 -11 7 -17 -11 -89 -11 -89 0 0 6 -5 3
-10 -5 -7 -11 -10 -11 -10 -2 0 7 -5 10 -11 7 -17 -11 -89 -11 -89 0 0 6 -5 3
-10 -5 -7 -11 -10 -11 -10 -2 0 7 -5 10 -11 7 -17 -11 -89 -11 -89 0 0 6 -5 3
-10 -5 -7 -11 -10 -11 -10 -2 0 7 -5 10 -11 7 -17 -11 -89 -11 -89 0 0 6 -5 3
-10 -5 -7 -11 -10 -11 -10 -2 0 7 -5 10 -11 7 -17 -11 -89 -11 -89 0 0 6 -5 3
-10 -5 -7 -11 -10 -11 -10 -2 0 9 -5 10 -16 4 -8 -5 -35 -6 -60 -2 -24 4 -44
4 -44 1 0 -3 -13 -6 -30 -6 -16 0 -30 5 -30 10 0 6 -5 3 -10 -5 -7 -11 -10
-11 -10 -2 0 7 -5 10 -11 7 -17 -11 -89 -11 -89 0 0 6 -5 3 -10 -5 -7 -11 -10
-11 -10 -2 0 7 -5 10 -11 7 -17 -11 -89 -11 -89 0 0 6 -5 3 -10 -5 -7 -11 -10
-11 -10 -2 0 7 -5 10 -11 7 -17 -11 -89 -11 -89 0 0 6 -5 3 -10 -5 -7 -11 -10
-11 -10 -2 0 7 -5 10 -11 7 -17 -11 -89 -11 -89 0 0 6 -5 3 -10 -5 -7 -11 -10
-11 -10 -2 0 7 -5 10 -11 7 -17 -11 -89 -11 -89 0 0 6 -5 3 -10 -5 -7 -11 -10
-11 -10 -2 0 7 -5 10 -11 7 -17 -11 -89 -11 -89 0 0 6 -5 3 -10 -5 -7 -11 -10
-11 -10 -2 0 7 -5 10 -11 7 -17 -11 -89 -11 -89 0 0 6 -5 3 -10 -5 -7 -11 -10
-11 -10 -2 0 7 -5 10 -11 7 -17 -11 -89 -11 -89 0 0 6 -5 3 -10 -5 -7 -11 -10
-11 -10 -2 0 7 -5 10 -11 7 -17 -11 -89 -11 -89 0 0 6 -5 3 -10 -5 -7 -11 -10
-11 -10 -2 0 7 -5 10 -12 6 -14 -9 -103 -9 -117 1 -6 3 -11 1 -11 -6 0 -8 -5
-7 -17 2 -11 10 -14 10 -9 2 9 -16 5 -16 -28 -3 -14 5 -26 6 -26 1 0 -9 -55
-5 -71 4 -5 4 -9 0 -10 -7 0 -10 -2 -10 -6 1 -4 10 -7 10 -13 1 -6 -9 -13 -9
-28 -1 -11 6 -23 7 -26 2 -6 -9 -60 -6 -77 4 -5 4 -9 1 -9 -6 0 -8 -5 -7 -17
2 -11 10 -14 10 -9 2 9 -16 5 -16 -28 -3 -14 5 -26 6 -26 1 0 -9 -55 -5 -71 4
-5 4 -9 0 -10 -7 0 -10 -2 -10 -6 1 -4 10 -7 10 -13 1 -6 -9 -13 -9 -28 -1
-12 7 -23 7 -27 2 -3 -6 -17 -6 -35 -1 -17 5 -30 6 -30 2 0 -4 -13 -7 -30 -7
-16 0 -30 5 -30 10 0 6 -5 3 -10 -5 -7 -11 -10 -11 -10 -2 0 7 -5 10 -11 7
-17 -11 -89 -11 -90 0 0 6 -3 4 -6 -4 -5 -11 -7 -11 -14 0 -7 12 -9 12 -9 0 0
-11 -3 -11 -17 0 -14 12 -16 12 -8 0 6 -11 5 -12 -6 -5 -8 5 -23 9 -34 10 -53
2 -145 17 -145 23 0 4 -22 13 -50 20 -27 7 -50 16 -50 19 0 4 -14 13 -32 21
-41 18 -59 33 -133 107 -68 69 -90 96 -108 136 -6 15 -15 28 -19 28 -5 0 -8 9
-8 20 0 11 -5 20 -12 20 -6 0 -9 3 -5 6 3 4 -1 23 -8 43 -8 20 -16 51 -18 69
-2 17 -6 35 -10 38 -3 3 -3 12 -1 19 3 7 1 23 -5 34 -6 11 -8 22 -4 24 10 6 9
59 -1 75 -4 7 -2 12 3 12 6 0 11 5 11 11 0 5 -3 8 -7 6 -5 -3 -8 10 -8 29 0
19 3 34 8 34 4 0 7 5 7 11 0 5 -4 7 -10 4 -6 -4 -7 2 -1 18 6 16 6 28 -2 36
-8 8 -8 11 1 11 7 0 12 5 12 11 0 5 -4 8 -8 5 -5 -3 -6 15 -2 39 4 26 3 48 -4
55 -7 7 -6 10 2 10 7 0 12 5 12 11 0 5 -4 8 -9 5 -5 -4 -6 9 -1 28 5 22 3 39
-3 45 -8 8 -7 11 1 11 10 0 10 5 2 20 -7 14 -7 20 0 20 5 0 10 5 10 11 0 5 -4
8 -9 5 -5 -4 -6 9 -1 28 5 22 3 39 -3 45 -8 8 -8 11 1 11 7 0 12 5 12 11 0 5
-4 8 -9 5 -5 -4 -6 9 -1 28 5 22 3 39 -3 45 -8 8 -7 11 1 11 10 0 10 5 2 20
-7 14 -7 20 0 20 5 0 10 5 10 11 0 5 -4 8 -9 5 -5 -4 -6 9 -1 28 5 22 3 39 -3
45 -8 8 -8 11 1 11 7 0 12 5 12 11 0 5 -3 8 -7 6 -5 -3 -8 10 -8 28 0 18 3 31
7 28 5 -2 4 7 -2 21 -6 17 -6 26 0 26 6 0 10 5 10 11 0 5 -4 7 -10 4 -6 -4 -7
2 -1 18 6 16 6 28 -2 36 -8 8 -8 11 1 11 7 0 12 5 12 11 0 5 -3 8 -7 6 -5 -3
-8 10 -8 29 0 19 3 34 8 34 4 0 7 5 7 11 0 5 -4 7 -10 4 -6 -4 -7 2 -1 18 6
16 6 28 -2 36 -8 8 -8 11 1 11 7 0 12 5 12 11 0 5 -4 8 -8 5 -5 -3 -6 15 -2
39 4 26 3 48 -4 55 -7 7 -6 10 2 10 7 0 12 5 12 11 0 5 -4 8 -9 5 -5 -4 -6 9
-1 28 5 22 3 39 -3 45 -8 8 -7 11 1 11 10 0 10 5 2 20 -7 14 -7 20 0 20 5 0
10 5 10 11 0 5 -4 8 -9 5 -5 -4 -6 9 -1 28 5 22 3 39 -3 45 -8 8 -8 11 1 11 7
0 12 5 12 11 0 5 -4 8 -9 5 -5 -4 -6 9 -1 28 5 22 3 39 -3 45 -8 8 -7 11 1 11
10 0 10 5 2 20 -7 14 -7 20 0 20 5 0 10 5 10 11 0 5 -4 8 -9 5 -5 -4 -6 9 -1
28 5 22 3 39 -3 45 -8 8 -8 11 1 11 7 0 12 5 12 11 0 5 -3 8 -7 6 -5 -3 -8 10
-8 28 0 18 3 31 7 28 5 -2 4 7 -2 21 -6 17 -6 26 0 26 6 0 10 5 10 11 0 5 -4
7 -10 4 -6 -4 -7 2 -1 18 6 16 6 28 -2 36 -8 8 -8 11 1 11 7 0 12 5 12 11 0 5
-3 8 -7 6 -5 -3 -8 10 -8 29 0 19 3 34 8 34 4 0 7 5 7 11 0 5 -4 7 -10 4 -6
-4 -7 2 -1 18 6 16 6 28 -2 36 -8 8 -8 11 1 11 7 0 12 5 12 11 0 5 -4 8 -8 5
-5 -3 -6 15 -2 39 4 26 3 48 -4 55 -7 7 -6 10 2 10 7 0 12 5 12 11 0 5 -4 8
-9 5 -5 -4 -6 9 -1 28 5 22 3 39 -3 45 -8 8 -7 11 1 11 10 0 10 5 2 20 -7 14
-7 20 0 20 5 0 10 5 10 11 0 5 -4 8 -9 5 -5 -4 -6 9 -1 28 5 22 3 39 -3 45 -8
8 -8 11 1 11 7 0 12 5 12 11 0 5 -4 8 -9 5 -5 -4 -6 9 -1 28 5 22 3 39 -3 45
-8 8 -7 11 1 11 10 0 10 5 2 20 -7 14 -7 20 0 20 5 0 10 5 10 11 0 5 -4 8 -9
5 -5 -4 -6 9 -1 28 5 22 3 39 -3 45 -8 8 -8 11 1 11 7 0 12 5 12 11 0 5 -3 8
-7 6 -5 -3 -8 10 -8 28 0 18 3 31 7 28 5 -2 4 7 -2 21 -6 17 -6 26 0 26 6 0
10 5 10 11 0 5 -4 7 -10 4 -6 -4 -7 2 -1 18 6 16 6 28 -2 36 -8 8 -8 11 1 11
7 0 12 5 12 11 0 5 -3 8 -7 6 -5 -3 -8 10 -8 29 0 19 3 34 8 34 4 0 7 5 7 11
0 5 -4 7 -10 4 -6 -4 -7 2 -1 18 6 16 6 28 -2 36 -8 8 -8 11 1 11 7 0 12 5 12
11 0 5 -4 8 -8 5 -5 -3 -6 15 -2 39 4 26 3 48 -4 55 -7 7 -6 10 2 10 7 0 12 5
12 11 0 5 -4 8 -9 5 -5 -4 -6 9 -1 28 5 22 3 39 -3 45 -8 8 -7 11 1 11 10 0
10 5 2 20 -7 14 -7 20 0 20 5 0 10 5 10 11 0 5 -4 8 -9 5 -5 -4 -6 9 -1 28 5
22 3 39 -3 45 -8 8 -8 11 1 11 7 0 12 5 12 11 0 5 -4 8 -9 5 -5 -4 -6 9 -1 28
5 22 3 39 -3 45 -8 8 -7 11 1 11 10 0 10 5 2 20 -7 14 -7 20 0 20 5 0 10 5 10
11 0 5 -4 8 -9 5 -5 -4 -6 9 -1 28 5 22 3 39 -3 45 -8 8 -8 11 1 11 7 0 12 5
12 11 0 5 -3 8 -7 6 -5 -3 -8 10 -8 28 0 18 3 31 7 28 5 -2 4 7 -2 21 -6 17
-6 26 0 26 6 0 10 5 10 11 0 5 -4 7 -10 4 -6 -4 -7 2 -1 18 6 16 6 28 -2 36
-8 8 -8 11 1 11 7 0 12 5 12 11 0 5 -3 8 -7 6 -5 -3 -8 10 -8 29 0 19 3 34 8
34 4 0 7 5 7 11 0 5 -4 7 -10 4 -6 -4 -7 2 -1 18 6 16 6 28 -2 36 -8 8 -8 11
1 11 7 0 12 5 12 11 0 5 -4 8 -8 5 -5 -3 -6 15 -2 39 4 26 3 48 -4 55 -7 7 -6
10 2 10 7 0 12 5 12 11 0 5 -4 8 -9 5 -5 -4 -6 9 -1 28 5 22 3 39 -3 45 -8 8
-7 11 1 11 10 0 10 5 2 20 -7 14 -7 20 0 20 5 0 10 5 10 11 0 5 -4 8 -9 5 -5
-4 -6 9 -1 28 5 22 3 39 -3 45 -8 8 -8 11 0 11 8 0 9 9 3 30 -5 17 -5 28 0 25
5 -3 8 9 8 27 0 18 1 35 2 38 5 13 22 102 23 118 0 6 4 12 9 12 5 0 7 4 4 8
-3 5 3 25 14 44 10 20 16 39 13 42 -4 3 -1 6 5 6 7 0 11 3 10 8 -3 12 24 62
34 62 4 0 8 6 8 13 1 16 80 102 104 110 10 4 16 10 12 14 -3 3 3 11 13 17 65
37 146 81 151 81 3 0 11 4 17 8 21 13 88 26 156 31 26 1 49 4 51 7 6 6 5621 2
5686 -4z"/>
<path d="M3604 11608 c-11 -11 -12 -18 -4 -23 8 -5 8 -11 1 -19 -6 -7 -8 -16
-4 -20 12 -11 11 -56 -1 -56 -7 0 -8 -3 -1 -8 12 -8 13 -22 3 -38 -4 -6 -4
-14 0 -18 10 -11 9 -30 -3 -38 -6 -5 -5 -8 3 -8 9 0 10 -5 3 -19 -6 -10 -7
-22 -3 -26 10 -10 9 -29 -3 -37 -6 -5 -4 -8 5 -8 13 0 13 -1 0 -10 -8 -5 -10
-10 -3 -10 12 0 12 -17 0 -37 -4 -6 -3 -14 2 -18 13 -7 10 -45 -4 -45 -5 0 -4
-4 3 -9 17 -10 17 -22 1 -32 -10 -6 -10 -11 0 -22 8 -11 9 -17 1 -22 -6 -3 -7
-12 -3 -18 12 -19 11 -57 -1 -57 -7 0 -8 -3 -1 -8 12 -8 13 -22 2 -39 -5 -7
-4 -13 1 -13 5 0 9 -7 9 -15 0 -8 -5 -15 -11 -15 -6 0 -5 -4 2 -9 8 -4 14 -12
14 -16 0 -4 -6 -12 -14 -16 -8 -6 -9 -9 -1 -9 12 0 12 -24 0 -36 -4 -4 -2 -13
4 -21 9 -10 8 -13 -2 -13 -9 0 -10 -3 -4 -8 15 -11 17 -32 2 -32 -9 0 -9 -2 1
-9 8 -4 14 -12 14 -16 0 -4 -6 -12 -14 -16 -8 -6 -9 -9 -1 -9 12 0 12 -17 0
-37 -4 -6 -3 -14 3 -18 5 -3 10 -11 10 -16 0 -6 -6 -7 -12 -3 -10 6 -10 4 0
-8 9 -11 10 -18 2 -23 -6 -3 -7 -12 -3 -18 12 -19 11 -57 -1 -57 -6 0 -5 -4 2
-9 15 -9 15 -20 1 -37 -5 -6 -5 -14 -1 -18 10 -11 9 -30 -3 -38 -6 -5 -5 -8 3
-8 9 0 10 -5 3 -19 -6 -10 -7 -22 -3 -26 10 -10 9 -29 -3 -37 -6 -5 -4 -8 5
-8 13 0 13 -1 0 -10 -8 -5 -10 -10 -3 -10 12 0 12 -17 0 -37 -4 -6 -3 -14 2
-18 13 -7 10 -45 -4 -45 -5 0 -4 -4 3 -9 17 -10 17 -22 1 -32 -10 -6 -10 -11
0 -22 8 -11 9 -17 1 -22 -6 -3 -7 -12 -3 -18 12 -19 11 -57 -1 -57 -7 0 -8 -3
-1 -8 12 -8 13 -22 2 -39 -5 -7 -4 -13 1 -13 5 0 9 -7 9 -15 0 -8 -5 -15 -11
-15 -6 0 -5 -4 2 -9 8 -4 14 -12 14 -16 0 -4 -6 -12 -14 -16 -8 -6 -9 -9 -1
-9 12 0 12 -24 0 -36 -4 -4 -2 -13 4 -21 9 -10 8 -13 -2 -13 -9 0 -10 -3 -4
-8 15 -11 17 -32 3 -32 -10 0 -10 -2 0 -9 8 -4 14 -12 14 -16 0 -4 -6 -12 -14
-16 -8 -6 -9 -9 -1 -9 12 0 12 -17 0 -37 -4 -6 -3 -14 3 -18 5 -3 10 -11 10
-16 0 -6 -6 -7 -12 -3 -10 6 -10 4 0 -8 9 -11 10 -18 2 -23 -6 -3 -7 -12 -3
-18 12 -19 11 -57 -1 -57 -7 0 -8 -3 -1 -8 12 -8 13 -27 3 -38 -4 -4 -4 -12 1
-18 14 -17 14 -28 -1 -37 -10 -7 -10 -9 0 -9 9 0 10 -5 3 -19 -6 -10 -7 -21
-4 -25 12 -12 12 -36 0 -36 -7 0 -5 -5 3 -10 13 -9 13 -10 0 -10 -12 0 -12 -2
-2 -9 15 -9 15 -20 1 -38 -7 -7 -6 -13 0 -17 13 -8 10 -46 -4 -46 -5 0 -4 -4
3 -9 17 -10 17 -22 1 -32 -10 -6 -10 -11 0 -22 8 -11 9 -17 1 -22 -6 -3 -7
-12 -3 -18 12 -19 11 -57 -1 -57 -7 0 -8 -3 -1 -8 6 -4 11 -20 11 -37 0 -16
-5 -33 -11 -37 -7 -5 -6 -8 1 -8 6 0 11 -7 11 -15 0 -8 -4 -15 -9 -15 -4 0 -8
-5 -8 -11 0 -5 4 -8 8 -5 4 2 8 -4 8 -15 0 -10 -5 -19 -11 -19 -5 0 -4 -4 3
-9 17 -11 17 -21 0 -32 -8 -6 -9 -9 -1 -9 12 0 12 -17 0 -37 -4 -6 -3 -14 2
-18 13 -7 10 -45 -4 -45 -5 0 -4 -4 3 -9 17 -11 17 -21 0 -32 -7 -5 -8 -9 -2
-9 6 0 11 -7 11 -15 0 -8 -5 -15 -11 -15 -7 0 -7 -3 -1 -8 14 -10 17 -32 5
-32 -5 0 -10 -5 -10 -11 0 -5 4 -8 8 -5 4 2 8 -4 8 -15 0 -10 -5 -19 -11 -19
-5 0 -4 -4 3 -9 17 -11 17 -21 0 -32 -8 -6 -9 -9 -1 -9 12 0 12 -17 0 -37 -4
-6 -2 -15 4 -18 5 -4 8 -13 5 -21 -3 -8 0 -14 7 -15 43 -4 54 -3 69 3 9 5 20
3 23 -2 5 -8 11 -8 20 0 7 6 16 7 18 3 7 -11 57 -10 75 0 6 5 12 4 12 0 0 -5
9 -9 20 -10 11 -1 18 2 15 8 -4 5 3 5 18 0 13 -5 30 -5 37 -1 8 5 19 5 26 -1
8 -7 14 -6 19 1 3 6 12 7 18 3 17 -11 60 -11 75 0 7 6 12 6 12 0 0 -5 9 -9 20
-10 11 -1 18 2 15 8 -4 5 3 5 18 0 13 -5 30 -5 37 -1 8 5 19 5 26 -1 8 -7 14
-6 19 1 3 6 12 7 18 3 17 -11 60 -11 75 0 7 6 12 6 12 0 0 -5 9 -9 20 -10 11
-1 18 2 15 8 -4 5 3 5 18 0 13 -5 30 -5 37 -1 8 5 19 5 26 -1 8 -7 14 -6 19 1
5 8 11 8 21 -1 11 -9 17 -9 29 1 8 7 15 8 15 3 0 -5 9 -9 20 -10 13 -1 18 2
13 10 -5 9 -3 9 8 0 12 -10 18 -10 27 -1 7 7 12 8 12 2 0 -5 9 -10 20 -11 13
-1 18 2 13 10 -5 9 -3 9 8 0 12 -10 18 -10 27 -1 7 7 12 8 12 2 0 -5 9 -10 20
-11 13 -1 18 2 13 10 -5 9 -3 9 8 0 12 -10 18 -10 27 -1 7 7 12 8 12 2 0 -5 9
-10 20 -11 13 -1 18 2 13 10 -5 9 -3 9 8 0 12 -10 18 -10 27 -1 7 7 12 8 12 2
0 -5 9 -10 20 -11 13 -1 18 2 13 10 -5 9 -3 9 8 0 12 -10 18 -10 27 -1 7 7 12
8 12 2 0 -5 9 -10 20 -11 13 -1 18 2 13 10 -5 9 -3 9 8 0 12 -10 18 -10 27 -1
7 7 12 8 12 2 0 -5 9 -10 20 -11 13 -1 18 2 13 10 -5 9 -3 9 8 0 12 -10 18
-10 27 -1 7 7 12 8 12 2 0 -5 9 -10 20 -11 13 -1 18 2 13 10 -5 9 -3 9 8 0 12
-10 18 -10 27 -1 7 7 12 8 12 2 0 -5 9 -10 20 -11 13 -1 18 2 13 10 -5 9 -3 9
8 0 12 -10 18 -10 27 -1 7 7 12 8 12 2 0 -5 9 -10 20 -11 13 -1 18 2 13 10 -5
9 -3 9 8 0 12 -10 18 -10 27 -1 7 7 12 8 12 2 0 -5 9 -10 20 -11 13 -1 18 2
13 10 -5 9 -3 9 8 0 12 -10 18 -10 27 -1 7 7 12 8 12 2 0 -5 9 -10 20 -11 13
-1 18 2 13 10 -5 9 -3 9 8 0 12 -10 18 -10 27 -1 7 7 12 8 12 2 0 -5 9 -10 20
-11 13 -1 18 2 13 10 -5 9 -3 9 8 0 12 -10 18 -10 27 -1 7 7 12 8 12 2 0 -5 9
-10 20 -11 13 -1 18 2 13 10 -5 9 -3 9 8 0 12 -10 18 -10 27 -1 7 7 12 8 12 2
0 -5 9 -10 20 -11 13 -1 18 2 14 10 -5 9 -3 9 6 0 10 -9 17 -10 27 -2 7 7 13
7 13 2 0 -5 9 -9 20 -10 11 -1 18 2 16 6 -6 9 25 8 41 -2 6 -4 14 -3 18 3 4 6
12 7 18 3 17 -11 60 -11 75 0 7 6 12 6 12 0 0 -5 9 -9 20 -10 11 -1 18 2 15 8
-4 5 3 5 18 0 13 -5 30 -5 37 -1 8 5 19 5 26 -1 8 -7 14 -6 19 1 3 6 12 7 18
3 17 -11 60 -11 75 0 7 6 12 6 12 0 0 -5 9 -9 20 -10 11 -1 18 2 15 8 -4 5 3
5 18 0 13 -5 30 -5 37 -1 8 5 19 5 26 -1 8 -7 14 -6 19 1 3 6 12 7 18 3 17
-11 60 -11 75 0 7 6 12 6 12 0 0 -5 9 -9 20 -10 11 -1 18 2 15 8 -4 5 3 5 18
0 13 -5 30 -5 37 -1 8 5 19 5 26 -1 8 -7 14 -6 19 1 3 6 12 7 18 3 17 -11 60
-11 75 0 7 6 12 6 12 0 0 -5 9 -9 20 -10 11 -1 18 2 15 8 -4 5 3 5 18 0 13 -5
30 -5 37 -1 8 5 19 5 26 -1 8 -7 14 -6 19 1 3 6 12 7 18 3 17 -11 60 -11 75 0
7 6 12 6 12 0 0 -5 9 -9 20 -10 11 -1 18 2 15 8 -4 5 3 5 18 0 13 -5 30 -5 37
-1 8 5 19 5 26 -1 8 -7 14 -6 19 1 5 8 11 8 21 -1 11 -9 17 -9 29 1 8 7 15 8
15 3 0 -5 9 -9 20 -10 13 -1 18 2 13 10 -5 9 -3 9 8 0 12 -10 18 -10 27 -1 7
7 12 8 12 2 0 -5 9 -10 20 -11 13 -1 18 2 13 10 -5 9 -3 9 8 0 12 -10 18 -10
27 -1 7 7 12 8 12 2 0 -5 9 -10 20 -11 13 -1 18 2 13 10 -5 9 -3 9 8 0 12 -10
18 -10 27 -1 7 7 12 8 12 2 0 -5 9 -10 20 -11 13 -1 18 2 13 10 -5 9 -3 9 8 0
12 -10 18 -10 27 -1 7 7 12 8 12 2 0 -5 9 -10 20 -11 13 -1 18 2 13 10 -5 9
-3 9 8 0 12 -10 18 -10 27 -1 7 7 12 8 12 2 0 -5 9 -10 20 -11 13 -1 18 2 13
10 -5 9 -3 9 8 0 12 -10 18 -10 27 -1 7 7 12 8 12 2 0 -5 9 -10 20 -11 13 -1
18 2 13 10 -5 9 -3 9 8 0 12 -10 18 -10 27 -1 7 7 12 8 12 2 0 -5 9 -10 20
-11 13 -1 18 2 13 10 -5 9 -3 9 8 0 12 -10 18 -10 27 -1 7 7 12 8 12 2 0 -5 9
-10 20 -11 13 -1 18 2 13 10 -5 9 -3 9 8 0 12 -10 18 -10 27 -1 7 7 12 8 12 2
0 -5 9 -10 20 -11 13 -1 18 2 13 10 -5 9 -3 9 8 0 12 -10 18 -10 27 -1 7 7 12
8 12 2 0 -5 17 -10 38 -9 20 0 43 -4 50 -9 7 -5 12 -4 12 3 0 7 5 9 13 4 14
-9 9 -8 75 -18 28 -4 52 -11 52 -16 0 -5 5 -9 11 -9 6 0 40 -15 76 -32 63 -32
213 -163 213 -187 0 -6 5 -11 10 -11 6 0 10 -5 10 -11 0 -6 9 -22 20 -36 11
-14 20 -34 20 -44 0 -9 5 -19 10 -21 6 -2 12 -14 15 -28 3 -14 9 -26 14 -28 4
-1 7 -16 5 -33 -2 -16 0 -28 5 -25 9 6 23 -118 24 -219 1 -33 6 -63 12 -67 7
-5 7 -8 -1 -8 -7 0 -9 -19 -7 -52 2 -29 5 -80 6 -114 2 -33 7 -66 11 -72 4 -7
2 -12 -6 -12 -9 0 -9 -3 -2 -8 6 -4 11 -29 13 -57 1 -27 6 -51 10 -53 5 -2 7
-12 4 -22 -3 -11 -2 -28 2 -37 5 -10 9 -34 10 -53 1 -19 3 -35 5 -35 1 0 4
-13 6 -30 4 -25 25 -129 29 -145 1 -3 5 -18 9 -35 4 -16 10 -37 13 -45 4 -8 7
-19 7 -25 6 -44 31 -123 37 -119 5 3 6 -2 3 -10 -3 -8 -2 -21 2 -28 9 -14 10
-18 20 -63 4 -16 11 -32 15 -35 5 -3 10 -15 12 -25 1 -11 6 -26 10 -32 5 -7 5
-13 1 -13 -3 0 0 -10 8 -22 8 -13 20 -42 28 -65 7 -24 18 -43 24 -43 6 0 4 -5
-4 -10 -8 -5 -10 -10 -4 -10 6 0 22 -27 35 -60 13 -33 28 -60 32 -60 5 0 7 -7
3 -15 -3 -8 0 -20 7 -28 23 -25 38 -58 31 -69 -4 -6 -3 -8 2 -5 6 3 31 -39 58
-94 26 -54 52 -99 57 -99 5 0 8 -3 7 -7 -3 -13 24 -63 34 -63 4 0 8 -5 8 -11
0 -6 10 -25 22 -42 13 -18 23 -36 23 -40 0 -4 5 -11 11 -15 5 -4 16 -21 23
-39 7 -17 19 -34 28 -37 8 -3 11 -10 8 -16 -3 -6 1 -13 9 -16 9 -3 16 -10 16
-16 0 -5 11 -21 25 -36 14 -15 28 -38 32 -50 4 -18 8 -21 14 -10 8 12 11 6 8
-18 0 -3 9 -14 20 -23 12 -10 21 -23 21 -28 0 -5 15 -25 33 -45 17 -20 48 -56
67 -79 19 -22 47 -54 63 -69 15 -15 27 -32 27 -39 0 -6 8 -11 17 -11 9 0 14
-3 11 -6 -9 -9 64 -84 75 -77 6 3 7 1 3 -5 -4 -6 5 -18 21 -26 15 -8 24 -15
20 -16 -10 0 133 -140 194 -190 101 -82 118 -98 111 -105 -4 -5 -2 -5 4 -2 10
6 48 -22 97 -70 10 -10 22 -18 27 -18 5 0 15 -7 22 -16 16 -19 94 -69 108 -69
5 0 9 -5 8 -12 -2 -7 3 -13 10 -14 6 -1 15 -3 20 -4 4 -1 10 -2 15 -1 4 0 7
-5 7 -13 0 -12 25 -30 33 -23 2 1 21 -12 42 -29 22 -17 54 -38 70 -46 78 -39
120 -64 123 -70 2 -5 12 -8 23 -8 11 0 22 -7 25 -15 4 -8 11 -15 16 -15 6 0
49 -19 97 -42 47 -23 88 -43 91 -44 3 0 22 -8 42 -17 21 -10 42 -17 48 -17 6
0 8 -5 5 -10 -4 -6 -3 -10 2 -8 13 3 92 -22 98 -31 3 -5 23 -12 45 -16 22 -4
38 -10 36 -14 -3 -4 3 -8 12 -9 25 -3 44 -8 72 -19 14 -6 28 -9 33 -6 4 2 7
-1 7 -6 0 -6 3 -10 8 -10 4 1 9 0 12 -1 3 -1 14 -3 24 -5 10 -2 41 -11 68 -20
27 -8 53 -13 58 -10 6 4 10 2 10 -3 0 -6 24 -15 53 -20 28 -6 63 -13 77 -17
45 -11 55 -13 105 -21 28 -5 53 -7 58 -6 4 1 7 -2 7 -8 0 -6 3 -9 8 -8 5 1
145 -12 172 -16 3 -1 11 -5 19 -10 10 -6 12 -5 7 2 -4 7 -2 12 3 12 6 0 11 -3
11 -7 0 -5 25 -8 55 -8 30 0 55 -4 55 -8 0 -5 6 -5 13 1 7 6 18 7 26 2 8 -4
70 -9 139 -9 82 -1 131 -6 141 -14 9 -7 12 -8 8 -1 -5 8 22 12 91 13 148 4
152 4 152 15 0 7 3 8 8 1 8 -12 42 -16 42 -5 0 4 11 6 24 5 13 -2 43 1 67 5
42 8 175 23 212 24 9 0 17 5 17 10 0 5 2 7 5 4 4 -3 23 -2 43 2 20 5 57 12 82
15 25 4 51 12 59 18 12 10 13 9 6 -3 -7 -12 -6 -13 6 -4 8 6 44 17 82 25 37 7
67 17 67 21 0 5 4 7 8 4 5 -3 37 3 72 14 35 11 67 17 72 14 4 -3 8 -1 8 5 0 6
16 13 35 17 19 3 35 10 35 14 0 4 6 7 13 7 23 -2 107 25 102 33 -3 5 3 7 12 6
10 -2 32 5 50 15 17 10 34 15 38 11 3 -3 9 -2 13 4 4 5 41 23 82 39 41 16 77
32 80 36 3 3 22 12 43 18 22 8 34 17 31 23 -4 6 -3 8 3 5 6 -4 36 6 67 22 31
16 56 26 56 23 0 -4 4 -2 8 5 4 7 28 21 52 32 25 11 41 21 35 21 -5 0 11 10
38 22 26 11 47 24 47 29 0 5 6 9 14 9 7 0 25 9 40 21 14 11 26 17 26 12 1 -4
9 2 20 15 10 13 22 22 25 22 4 -1 16 5 28 14 12 9 45 30 72 48 28 18 55 37 61
43 6 5 22 17 34 25 13 8 36 27 53 42 17 15 34 25 38 23 4 -3 9 2 13 10 3 8 17
20 31 27 14 6 25 18 25 25 0 8 4 12 9 9 4 -3 17 2 27 10 10 9 12 13 4 9 -8 -4
-4 2 10 13 13 11 29 18 34 15 5 -3 6 -1 3 4 -4 6 5 19 20 29 14 11 73 65 130
120 57 56 103 98 103 95 1 -3 8 7 16 22 8 15 19 25 24 22 6 -4 10 -1 10 5 0 6
6 17 13 24 15 16 107 122 127 147 8 11 24 31 35 45 11 14 28 34 38 46 9 12 17
25 17 30 0 5 4 6 10 3 6 -4 7 1 3 11 -4 12 -3 15 5 10 7 -4 12 -1 12 7 0 7 11
24 25 37 14 13 25 28 25 32 0 5 6 16 13 23 26 30 37 45 35 47 -1 2 21 39 49
83 29 44 51 84 50 88 -1 5 6 13 16 18 9 6 15 14 12 18 -2 5 2 14 10 21 8 7 12
16 9 21 -3 5 0 9 6 9 6 0 9 4 6 9 -4 5 -2 11 2 13 5 1 20 28 35 57 15 30 27
51 28 45 0 -5 9 15 20 44 11 28 25 52 30 52 5 0 9 10 9 23 0 12 6 31 14 42 8
11 19 39 26 63 7 23 15 40 18 37 3 -2 19 38 37 90 17 52 35 92 39 88 4 -5 7
-1 5 7 -2 16 10 68 20 85 3 6 6 13 7 18 1 4 2 8 4 10 1 1 3 9 5 17 2 8 10 37
19 64 8 27 13 53 10 58 -3 4 0 8 5 8 6 0 10 3 10 8 -1 4 -1 9 1 12 1 3 3 16 6
30 2 14 7 32 11 40 3 8 7 23 8 33 2 9 3 18 5 20 5 6 23 112 24 139 0 9 3 15 7
13 3 -3 9 19 13 48 3 28 8 67 11 85 3 17 7 45 9 61 2 17 7 35 12 42 5 8 3 9
-6 4 -10 -6 -11 -4 -4 6 4 8 9 23 10 34 1 11 5 43 9 72 4 28 8 85 8 126 1 41
6 73 10 70 5 -3 4 4 -2 16 -7 11 -8 21 -4 21 10 0 9 242 -1 258 -4 7 -4 12 1
12 4 0 8 11 8 24 0 13 -3 22 -7 19 -5 -2 -8 1 -8 6 0 6 5 11 11 11 5 0 7 5 4
10 -4 6 -8 29 -10 53 -3 23 -7 74 -11 112 -4 39 -6 80 -6 93 1 12 -4 22 -11
22 -8 0 -7 4 3 10 8 5 10 10 4 10 -6 0 -11 6 -11 13 0 12 -11 96 -20 157 -3
19 -6 42 -7 50 -1 9 -5 20 -8 25 -4 6 -9 30 -13 55 -4 24 -10 51 -15 60 -4 8
-8 18 -9 23 -1 4 -2 9 -2 12 -3 11 -6 23 -18 88 -7 37 -17 67 -22 67 -5 0 -9
14 -9 30 0 17 -5 30 -12 30 -6 0 -9 2 -6 5 3 3 -2 32 -12 63 -16 50 -25 77
-56 157 -4 11 -6 23 -6 28 1 4 -2 7 -8 7 -6 0 -9 3 -9 8 4 18 -14 71 -22 66
-5 -3 -9 2 -9 10 0 9 -12 41 -27 73 -15 32 -26 61 -25 65 1 3 -5 12 -13 18 -8
7 -15 23 -15 36 0 12 -7 29 -15 37 -7 8 -22 33 -32 56 -10 22 -21 41 -25 41
-4 0 -10 16 -14 36 -5 26 -9 32 -16 22 -7 -10 -8 -8 -6 7 2 11 -5 29 -15 40
-10 11 -23 29 -28 40 -5 11 -20 38 -34 60 -13 22 -32 54 -41 70 -9 17 -20 32
-23 35 -4 3 -29 39 -56 80 -52 78 -55 82 -83 117 -9 12 -26 34 -37 48 -11 14
-30 37 -42 52 -12 14 -25 34 -28 44 -4 11 -11 17 -16 14 -5 -4 -9 -1 -9 5 0 6
-10 22 -22 35 -13 13 -48 51 -78 85 -76 86 -246 256 -310 310 -29 25 -62 53
-74 63 -12 10 -31 27 -43 37 -12 10 -24 16 -27 13 -3 -4 -6 -1 -6 5 0 6 -21
26 -47 43 -27 18 -55 41 -64 51 -9 10 -19 15 -22 11 -4 -3 -9 2 -13 11 -3 9
-12 16 -19 16 -6 0 -20 9 -30 20 -10 11 -24 20 -32 20 -7 0 -13 5 -13 10 0 6
-7 10 -15 10 -8 0 -15 5 -15 10 0 6 -7 10 -15 10 -9 0 -18 7 -21 15 -4 8 -10
12 -15 9 -5 -3 -9 0 -9 5 0 6 -6 11 -13 11 -12 0 -25 8 -73 49 -7 5 -15 7 -18
4 -3 -4 -14 0 -23 8 -10 8 -29 20 -42 27 -13 8 -39 22 -57 33 -19 10 -34 15
-34 11 0 -4 -4 -2 -8 4 -8 14 -110 64 -129 64 -7 0 -13 4 -13 8 0 6 -39 26
-70 36 -39 13 -50 19 -50 26 0 5 -9 7 -20 5 -11 -2 -20 0 -20 5 0 5 -13 11
-30 15 -16 3 -47 15 -69 26 -22 10 -47 19 -56 19 -8 0 -15 4 -15 8 0 5 -6 9
-12 9 -7 0 -40 9 -73 19 -33 10 -66 17 -74 15 -7 -1 -10 2 -6 8 3 6 -2 11 -12
12 -36 1 -67 10 -74 20 -3 6 -9 10 -13 8 -17 -6 -146 24 -146 34 0 7 -5 5 -10
-3 -5 -8 -10 -10 -10 -4 0 11 -81 30 -107 25 -7 -1 -13 3 -13 8 0 6 -7 8 -15
5 -8 -3 -20 -2 -27 2 -7 4 -21 9 -33 10 -100 11 -137 18 -152 27 -8 5 -13 3
-13 -4 0 -7 -4 -8 -12 -2 -7 5 -30 9 -50 9 -21 -1 -38 2 -38 5 0 3 -12 6 -27
6 -99 3 -256 13 -263 18 -5 3 -11 1 -15 -5 -3 -6 -14 -7 -23 -2 -9 4 -142 7
-294 6 -253 -1 -280 -2 -298 -19 -11 -10 -20 -15 -20 -11 0 4 -11 -4 -24 -18
-13 -15 -27 -26 -32 -26 -5 0 -22 -11 -38 -25 -16 -14 -33 -25 -37 -25 -4 0
-14 -6 -21 -12 -17 -16 -64 -44 -100 -60 -16 -7 -28 -16 -28 -20 0 -4 -7 -8
-15 -8 -8 0 -15 -4 -15 -10 0 -5 -7 -10 -15 -10 -9 0 -27 -8 -42 -17 -14 -10
-33 -18 -41 -19 -8 -2 -18 -7 -21 -13 -3 -5 -19 -13 -34 -16 -15 -4 -27 -11
-27 -15 0 -4 -11 -11 -25 -14 -13 -3 -37 -11 -52 -17 -15 -6 -30 -10 -32 -9
-2 1 -7 -2 -10 -7 -7 -11 -152 -63 -175 -63 -9 0 -16 -4 -16 -9 0 -8 -70 -25
-86 -21 -4 1 -10 -3 -13 -9 -4 -5 -22 -13 -41 -16 -19 -3 -59 -13 -88 -21 -29
-9 -60 -13 -68 -10 -8 3 -13 2 -10 -3 5 -7 -45 -18 -106 -24 -10 -1 -18 -6
-18 -12 0 -5 -5 -3 -10 5 -6 9 -10 10 -10 3 0 -6 -8 -12 -17 -11 -10 0 -39 -3
-64 -6 -84 -12 -144 -17 -201 -18 -32 -1 -55 -4 -53 -8 2 -3 -18 -3 -46 0 -32
4 -49 3 -49 -4 0 -6 -4 -5 -9 3 -7 11 -9 11 -14 0 -5 -12 -7 -12 -15 0 -6 8
-12 9 -15 3 -6 -9 -82 -8 -140 3 -19 3 -26 1 -21 -7 5 -7 3 -8 -7 -2 -8 5 -39
9 -69 10 -30 1 -62 4 -70 7 -8 3 -50 8 -92 11 -42 3 -88 10 -103 16 -14 5 -29
9 -33 8 -4 -1 -26 2 -49 6 -24 4 -45 8 -48 7 -2 0 -24 6 -47 15 -23 8 -53 16
-67 19 -14 3 -37 7 -51 11 -14 3 -31 6 -37 6 -7 1 -13 6 -13 11 0 5 -6 7 -14
4 -8 -3 -20 1 -26 8 -7 8 -16 13 -20 10 -4 -2 -31 5 -61 16 -30 11 -58 21 -64
23 -5 1 -36 14 -68 29 -33 15 -76 32 -98 38 -21 7 -36 16 -33 20 3 5 -1 9 -8
9 -16 0 -142 62 -146 72 -2 4 -8 8 -12 8 -5 0 -37 17 -72 37 -35 21 -66 36
-70 35 -5 -1 -8 2 -8 6 0 5 -37 34 -82 65 -46 30 -92 64 -103 74 -19 17 -113
18 -2383 18 -2184 0 -2365 -1 -2378 -17z"/>
</g>
</svg>
